<?xml version="1.0" encoding="utf-8"?>
<svg id="Layer_1" data-name="Layer 1" viewBox="0 0 609.77 116.71" xmlns="http://www.w3.org/2000/svg">
    <defs>
        <style>.cls-1{fill:#fefdfd;}.cls-2{fill:#e38c64;}.cls-3{fill:#f36582;}.cls-4{fill:#3f3e3a;}.cls-5{fill:#703889;}.cls-6{fill:#f27934;}.cls-7{fill:#ac2165;}.cls-8{fill:#86ad46;}.cls-9{fill:#52beb5;}.cls-10{fill:#126db6;}.cls-11{fill:#f9a635;}.cls-12{fill:#fbfcfd;}</style>
    </defs>
    <g id="Artboard_1" data-name="Artboard 1">
        <path class="cls-1" d="M1361.45,0c3.75,0,4.71.82,4.6,4.58-.29,10.46-.1,20.93-.1,31.39-2-.07-4-.2-6-.21H1065.5q-116,0-231.93.09c-4.48,0-6.05-1-5.86-5.72.23-6.09.78-12.25-.38-18.34-.13-2.72-.45-5.35-3.29-6.77a9.49,9.49,0,0,0-11.47-1.77c-4,1.94-5.74,5.4-5.85,9.68-.11,4,0,8,0,12,0,10.88,0,10.87-10.91,10.89-9.16,0-18.33-.12-27.48.17a10.55,10.55,0,0,0-10.21,9.21c-.53,5.26,2.87,9.73,8.64,11.09a25.44,25.44,0,0,0,5.43.53c4.33.08,8.66,0,13,.06,1,0,2.64-.42,2.74,1.28.08,1.51-1,2.4-2.53,2.5-1.16.08-2.33.06-3.5.07-5.16,0-10.34-.17-15.48.19a10.48,10.48,0,0,0-10.09,9.92c-.29,5,3.22,9.16,8.87,10.49,3.78.88,7.64.22,11.46.47,2.62.16,5.4-.57,8.49.79-.82.64-1,1-1.29,1-4.16.1-8.32.12-12.47.24-6,.16-9.49,3.13-9.51,8s3.47,7.9,9.46,8,12,.19,18-.1c3.65-.17,5.34,1.46,6.57,5.18h-11c-1-.07-2-.21-3-.19-3.51,0-6.5,1.33-6.6,5.16-.11,4.06,2.89,5.59,6.62,5.74a19.25,19.25,0,0,0,2.94-.28c17.28,1.21,34.57,0,51.86,0q261.33.34,522.67.15c2.18,0,4.33.12,6.49.22-.22.31.5,1-.5,1h-4" transform="translate(-756.29 -0.04)"/>
        <path class="cls-2" d="M1365.89,115.75c-2.16-.1-4.31-.27-6.47-.27q-261.33,0-522.67-.15c-17.29,0-34.58,1.18-51.86,0,2.19-3.48,3.37-7,0-10.43h11c-1.23-3.72-2.92-5.35-6.57-5.18-6,.29-12,.23-18,.1s-9.48-3.21-9.46-8,3.55-7.79,9.51-8c4.15-.12,8.31-.14,12.47-.24.24,0,.47-.34,1.29-1-3.09-1.36-5.87-.63-8.49-.79-3.82-.25-7.68.41-11.46-.47-5.65-1.33-9.16-5.51-8.87-10.49a10.48,10.48,0,0,1,10.09-9.92c5.14-.36,10.32-.14,15.48-.19,1.17,0,2.34,0,3.5-.07,1.55-.1,2.61-1,2.53-2.5-.1-1.7-1.69-1.26-2.74-1.28-4.33-.06-8.66,0-13-.06a25.44,25.44,0,0,1-5.43-.53c-5.77-1.36-9.17-5.83-8.64-11.09A10.53,10.53,0,0,1,768.29,36c9.15-.29,18.32-.15,27.48-.17,10.91,0,10.9,0,10.91-10.89,0-4-.07-8,0-12,.11-4.28,1.81-7.74,5.85-9.68A9.49,9.49,0,0,1,824,5.06c-2.84,0-5.9-.33-6.92,3.29a4.06,4.06,0,0,0,1.6,4.85c2.75,1.73,5.36,1.17,7.74-.88a4.64,4.64,0,0,1,.87-.49c1.16,6.09.61,12.25.38,18.34-.19,4.7,1.38,5.73,5.86,5.72q116-.2,231.93-.09h294.41c2,0,4,.14,6,.21ZM765.78,75c2.35.25,3.81-1.9,4-4.75.25-3.29-2.41-4.87-5-5-2.91-.12-4.7,2.14-4.77,5.14S761.8,74.77,765.78,75Zm4.82,21.89c2.38-.12,4.41-1.41,4.29-4.73-.11-3-2-4.31-4.89-4.31-3.17,0-5.06,1.42-5,4.7.1,3,2,4.26,5.6,4.32ZM767,41c-3.53-.08-4.84,2.19-4.85,5.07s2,3.94,4.72,4c3.2,0,5.15-1.38,5-4.71C771.82,42.2,769.85,41,767,41Z" transform="translate(-756.29 -0.04)"/>
        <path class="cls-3" d="M784.89,104.87c3.37,3.48,2.19,7,0,10.43a19.25,19.25,0,0,1-2.94.28c-3.73-.15-6.73-1.68-6.62-5.74.1-3.83,3.09-5.11,6.6-5.16C782.92,104.66,783.91,104.8,784.89,104.87Z" transform="translate(-756.29 -0.04)"/>
        <path class="cls-3" d="M827.33,11.83a4.64,4.64,0,0,0-.87.49c-2.38,2-5,2.61-7.74.88a4.06,4.06,0,0,1-1.6-4.85c1-3.62,4.08-3.29,6.92-3.29C826.88,6.48,827.2,9.11,827.33,11.83Z" transform="translate(-756.29 -0.04)"/>
        <path class="cls-3" d="M765.78,75c-4-.21-5.82-1.58-5.76-4.59s1.86-5.26,4.77-5.14c2.61.11,5.27,1.69,5,5C769.59,73.08,768.13,75.23,765.78,75Z" transform="translate(-756.29 -0.04)"/>
        <path class="cls-3" d="M770.6,96.87c-3.58-.06-5.5-1.3-5.58-4.34-.08-3.28,1.81-4.71,5-4.7,2.91,0,4.78,1.28,4.89,4.31C775,95.46,773,96.75,770.6,96.87Z" transform="translate(-756.29 -0.04)"/>
        <path class="cls-3" d="M767,41c2.86,0,4.83,1.24,4.92,4.32.1,3.33-1.85,4.74-5,4.71-2.7,0-4.73-1.16-4.72-4S763.46,40.88,767,41Z" transform="translate(-756.29 -0.04)"/>
    </g>
    <path d="M935,54.4c.46,1.46.91,2.92,1.36,4.38.06.21.15.42.19.63s.27.4-.11.52-.49.24-.71-.14a18.42,18.42,0,0,0-1.87-2.6,5.36,5.36,0,0,0-4.21-1.91h-5.48c-.29,0-.34.11-.34.36v9.6c0,.17,0,.35.25.35a24.78,24.78,0,0,0,3.85-.12,3.38,3.38,0,0,0,3-2.74,9.66,9.66,0,0,0,.22-1.07c0-.29.14-.39.44-.38s.24.24.24.4v8.64c0,.18.09.41-.26.42s-.38-.12-.41-.38a7.91,7.91,0,0,0-.32-1.36,3.34,3.34,0,0,0-3-2.47,32.25,32.25,0,0,0-3.68-.12c-.24,0-.3.1-.3.32v8.54c0,1.29.59,1.86,1.86,1.88a26.81,26.81,0,0,0,5.52-.16,5.51,5.51,0,0,0,3.1-1.77A19.51,19.51,0,0,0,936.66,72c.19-.32.38-.32.67-.2s.21.13.17.32c-.39,1.87-.78,3.73-1.15,5.61-.07.36-.29.3-.51.3H918.22c-.24,0-.45,0-.45-.34s.06-.52.45-.5a3.84,3.84,0,0,0,1.17-.15,1,1,0,0,0,.83-1,8.42,8.42,0,0,0,.08-1V56.79c-.08-1.15-.4-1.48-1.56-1.56-.79-.06-.8-.07-.89-.88Z" transform="translate(-756.29 -0.04)"/>
    <path d="M896.76,84.39a1.14,1.14,0,0,1,.52,0h158.06c.17,0,.35,0,.5.07a.18.18,0,0,1-.19.11H897.41a1.78,1.78,0,0,1-.65,0Z" transform="translate(-756.29 -0.04)"/>
    <path d="M1004,78.26A8.83,8.83,0,0,1,995,70a10.48,10.48,0,0,1,1.32-6.62,8.31,8.31,0,0,1,6.93-4.13,8.8,8.8,0,0,1,9.7,7.8l0,.32a11,11,0,0,1-.67,5.5A8.5,8.5,0,0,1,1004,78.26Zm6.21-9.48V68.3a10.8,10.8,0,0,0-1.69-6,5.26,5.26,0,0,0-6.62-2,6.31,6.31,0,0,0-3.23,3.59,13.49,13.49,0,0,0-.84,6.44,9.57,9.57,0,0,0,1.63,4.79,5.27,5.27,0,0,0,4.43,2.5,5.51,5.51,0,0,0,5.11-3.25,11.19,11.19,0,0,0,1.23-5.59Z" transform="translate(-756.29 -0.04)"/>
    <path d="M1031.16,73.66V62.46a6.36,6.36,0,0,0-.06-.87c-.15-1-.71-1.47-1.93-1.47-.26,0-.5,0-.45-.37,0-.18.09-.22.25-.22h5.13c.24,0,.25.13.25.31s0,.29-.23.27H1034c-1.54-.06-2.06.62-2.06,2.21V77.57c0,.19.14.46-.1.55a.6.6,0,0,1-.71-.25l-13.35-15.12-.32-.35c-.14.1-.08.23-.08.33V74.56a5.13,5.13,0,0,0,.15,1.35,1.67,1.67,0,0,0,1.83,1.48h0c.16,0,.43-.15.44.23s-.05.36-.33.35h-5c-.24,0-.33-.07-.33-.32s.13-.27.33-.27c1.41,0,1.89-.5,2-1.91,0-.43.07-.87.07-1.31V62a1,1,0,0,0-.46-.9,3.85,3.85,0,0,0-1.86-1c-.24,0-.2-.2-.2-.36a.23.23,0,0,1,.27-.24H1018c.25,0,.36.18.49.33l10.25,11.35,2.26,2.49Z" transform="translate(-756.29 -0.04)"/>
    <path d="M959,75.08v-2.5c0-.21,0-.37.29-.37s.33.11.36.36a5.53,5.53,0,0,0,2.14,4.1A4.61,4.61,0,0,0,968,76a3.15,3.15,0,0,0-.21-4.44,3.37,3.37,0,0,0-.88-.56c-1-.49-2-.8-3-1.2a14.74,14.74,0,0,1-1.71-.79,5,5,0,0,1-2.13-6.74s0,0,0-.08a5.54,5.54,0,0,1,5.86-3,7.59,7.59,0,0,1,3,1.15c.56.36.65.34,1.15-.1.13-.12.25-.22.42-.17s.14.27.14.42V65c0,.19.17.49-.22.55s-.36-.3-.41-.53a8.81,8.81,0,0,0-1.15-3.14,4,4,0,0,0-4.3-1.92,3.67,3.67,0,0,0-2.72,3.77,3.37,3.37,0,0,0,1.92,2.88,20.22,20.22,0,0,0,2.59,1.08,19.78,19.78,0,0,1,2.2,1,4.62,4.62,0,0,1,2.21,6.07,5.25,5.25,0,0,1-4.45,3.38,9,9,0,0,1-5.45-.89c-.6-.29-.6-.29-1,.21-.08.09-.17.17-.24.26a.37.37,0,0,1-.42.15c-.17-.06-.1-.23-.1-.35Z" transform="translate(-756.29 -0.04)"/>
    <path d="M984.81,68.3v7.45c0,.2,0,.41,0,.61a1,1,0,0,0,1,.94,4.09,4.09,0,0,0,.78,0c.22,0,.37,0,.37.27s-.08.35-.35.35H980.2c-.25,0-.33-.07-.33-.32s.07-.34.33-.33a3.28,3.28,0,0,0,1.08-.1.93.93,0,0,0,.72-.74,4.15,4.15,0,0,0,.07-.7V60.62c0-.33-.06-.46-.42-.45-1.45,0-2.89.09-4.34.19a1.34,1.34,0,0,0-.87.46,18.84,18.84,0,0,0-2.11,2.84c-.11.15-.21.32-.32.47s-.1.28-.29.18a.32.32,0,0,1-.21-.39v0c.24-1.08.46-2.17.69-3.25.09-.43.19-.86.28-1.29,0-.18.11-.23.3-.18a11.41,11.41,0,0,0,3.39.35h11.15A9.06,9.06,0,0,0,992,59.2c.29-.08.36,0,.41.25.29,1.46.6,2.92.9,4.38,0,.19.08.38-.16.48s-.27-.17-.36-.29c-.63-.9-1.21-1.83-1.89-2.69a2.29,2.29,0,0,0-1.92-1c-1.26,0-2.51-.07-3.77-.13-.33,0-.42.07-.41.4C984.82,63.16,984.81,65.73,984.81,68.3Z" transform="translate(-756.29 -0.04)"/>
    <path d="M948.13,59l1.8,4.63q2.36,6.09,4.69,12.17c.32.83.76,1.48,1.78,1.46.32,0,.2.26.22.42s-.18.25-.35.25H950c-.18,0-.39,0-.37-.27s0-.43.31-.44a6.69,6.69,0,0,0,1-.14c.65-.12.88-.44.74-1.09a8.1,8.1,0,0,0-.31-.95c-.45-1.24-.91-2.47-1.35-3.7a.42.42,0,0,0-.47-.33H944c-.22,0-.35,0-.43.27-.48,1.34-1,2.68-1.45,4s-.14,1.65,1.14,1.86a2.67,2.67,0,0,0,.48.08c.3,0,.25.21.26.4s-.12.28-.32.28h-4.35c-.18,0-.32,0-.31-.25s-.07-.43.25-.45h0c1.14,0,1.57-.78,1.9-1.7,1.51-4.37,3.27-8.65,4.9-13a1.2,1.2,0,0,0-.09-1.24c-.07-.1-.2-.24,0-.37A20.33,20.33,0,0,0,948.13,59Zm-1.45,3.75c-.9,2.5-1.76,4.86-2.63,7.23-.1.26,0,.26.21.26h5.37Z" transform="translate(-756.29 -0.04)"/>
    <path d="M926.68,95v1.51c0,.51-.13.52-.51.49a3.93,3.93,0,0,0-.84,0c-.36,0-.5-.06-.49-.47V93.9a2,2,0,0,0-.1-.68.5.5,0,0,0-.5-.36.51.51,0,0,0-.51.35,1.55,1.55,0,0,0-.08.64v2.76c0,.31-.09.41-.4.39a6.61,6.61,0,0,0-1.09,0c-.29,0-.38-.09-.37-.37V93.78a1.54,1.54,0,0,0-.09-.6.53.53,0,0,0-.52-.32.47.47,0,0,0-.48.38,2.57,2.57,0,0,0-.1.78V96.6c0,.29,0,.42-.38.4s-.79,0-1.18,0c-.18,0-.27,0-.26-.24a34.61,34.61,0,0,1,.08-3.81,2.5,2.5,0,0,1,2.19-2.17,2,2,0,0,1,1.36.4.33.33,0,0,0,.45,0,2.36,2.36,0,0,1,3.29.61,2.42,2.42,0,0,1,.41,1.12A12.16,12.16,0,0,1,926.68,95Z" transform="translate(-756.29 -0.04)"/>
    <path d="M928,94.87a10.74,10.74,0,0,1,.12-2.12,2.51,2.51,0,0,1,2.23-2,2.07,2.07,0,0,1,1.31.42.3.3,0,0,0,.38,0,2.39,2.39,0,0,1,3.77,2c.08,1.15,0,2.31,0,3.46,0,.22-.09.28-.29.27a10.84,10.84,0,0,0-1.14,0c-.3,0-.41-.07-.4-.39v-2.8a1.39,1.39,0,0,0-.08-.61.53.53,0,0,0-.68-.32.51.51,0,0,0-.32.32,1.75,1.75,0,0,0-.1.64v2.72c0,.31,0,.46-.4.42s-1.06.19-1.34-.1-.07-.87-.08-1.32,0-1.16,0-1.75a1.54,1.54,0,0,0-.11-.64.5.5,0,0,0-.52-.33.49.49,0,0,0-.48.37,1.52,1.52,0,0,0-.07.52v2.85c0,.29-.06.43-.38.4-.48-.06-1.1.2-1.39-.11s-.06-.89-.08-1.35Z" transform="translate(-756.29 -0.04)"/>
    <path d="M1009.47,90.62a17,17,0,0,1,2.14.07,3.16,3.16,0,0,1,.13,6.21,12.44,12.44,0,0,1-2.44.12h-1.89c-.08,0-.19,0-.22-.09s.09-.16.19-.17c.51-.08.65-.42.65-.88V91.77c0-.45-.1-.82-.63-.89-.1,0-.24,0-.22-.15s.18-.11.28-.11Zm-.25,3h0v2.31a.67.67,0,0,0,.48.75,2.57,2.57,0,0,0,3-1.37c.85-1.94-.07-4.74-3.08-4.38-.28,0-.42.1-.41.41,0,.75,0,1.51,0,2.27Z" transform="translate(-756.29 -0.04)"/>
    <path d="M914,90.53a3.17,3.17,0,0,1,3.28,3.06v.24a3.32,3.32,0,0,1-3.39,3.25h0a3.28,3.28,0,0,1-.18-6.56Zm-2.27,3.19a3.92,3.92,0,0,0,.53,2.14,1.84,1.84,0,0,0,2.51.65,2,2,0,0,0,.49-.43,3.94,3.94,0,0,0,0-4.54,1.82,1.82,0,0,0-2.53-.38,2,2,0,0,0-.38.38,3.53,3.53,0,0,0-.61,2.18Z" transform="translate(-756.29 -0.04)"/>
    <path d="M988.85,93.77a3.4,3.4,0,1,1-3.55-3.24h.27a3.15,3.15,0,0,1,3.28,3Zm-5.54.07a3.72,3.72,0,0,0,.58,2.08,1.83,1.83,0,0,0,2.53.54,2,2,0,0,0,.47-.44,4,4,0,0,0,0-4.41,1.83,1.83,0,0,0-2.55-.45,1.85,1.85,0,0,0-.52.56A3.92,3.92,0,0,0,983.31,93.84Z" transform="translate(-756.29 -0.04)"/>
    <path d="M1034.5,93.83a3.26,3.26,0,0,1,3.21-3.31h.28a3.16,3.16,0,0,1,3.3,3v.22a3.29,3.29,0,0,1-3.25,3.33h-.14a3.24,3.24,0,0,1-3.4-3.08Zm5.56,0a3.68,3.68,0,0,0-.79-2.32,1.82,1.82,0,0,0-2.57-.18,1.53,1.53,0,0,0-.18.18,4,4,0,0,0,0,4.7,1.83,1.83,0,0,0,2.58.2,2,2,0,0,0,.25-.26,3.79,3.79,0,0,0,.71-2.35Z" transform="translate(-756.29 -0.04)"/>
    <path d="M951.54,95.29V91.88a.91.91,0,0,0-.8-1c-.1,0-.27,0-.22-.19s.17-.08.26-.08h1.84c.08,0,.19,0,.21.09s-.07.14-.16.16c-.54.11-.71.47-.74,1-.09,1.56-.06,3.12-.07,4.69,0,.16.09.39-.12.46s-.33-.13-.45-.27L947.09,92a2.39,2.39,0,0,0-.22-.23s-.07.08-.07.11V95.7c0,.78.07.82.81,1.07.09,0,.17,0,.16.16s-.1.1-.17.1h-1.93c-.08,0-.19,0-.19-.12s.09-.13.18-.14c.51-.09.68-.42.72-.9.13-1.4,0-2.8.07-4.2a.75.75,0,0,0-.61-.76c-.11,0-.32,0-.3-.17s.2-.09.31-.11a2.46,2.46,0,0,1,2.62,1.14C949.4,93,950.47,94.06,951.54,95.29Z" transform="translate(-756.29 -0.04)"/>
    <path d="M999.85,91.74a38.91,38.91,0,0,0,0,4.32.74.74,0,0,0,.71.7c.1,0,.24,0,.24.14s-.17.12-.27.12h-1.8c-.09,0-.23,0-.24-.11s.12-.14.22-.16a.77.77,0,0,0,.68-.79c.13-1.45.08-2.91.07-4.37a.74.74,0,0,0-.63-.69c-.1,0-.28,0-.26-.17s.2-.11.31-.11c1.56,0,1.55,0,2.57,1.13l3,3.42c.15,0,.1-.15.1-.22V92c0-.69-.15-.86-.8-1.08-.1,0-.27,0-.23-.19s.17-.08.26-.08h1.85c.07,0,.18,0,.2.09s-.06.14-.15.16c-.59.12-.71.54-.75,1.07-.09,1.53,0,3.07-.06,4.6,0,.16.1.39-.12.46s-.33-.13-.45-.27l-4.07-4.64Z" transform="translate(-756.29 -0.04)"/>
    <path d="M1048.65,95.28V91.79a.87.87,0,0,0-.8-.9c-.1,0-.26,0-.22-.19s.17-.08.26-.08h1.84c.08,0,.19,0,.22.08s-.08.16-.18.18c-.52.1-.69.45-.72,1-.1,1.57-.07,3.15-.06,4.73,0,.15.09.38-.14.45s-.31-.13-.43-.26l-4.13-4.71-.29-.31a.12.12,0,0,0-.09.14v3.82c0,.65.1,1,.8,1.07.1,0,.18,0,.16.17s-.1.09-.17.09h-1.93c-.06,0-.15,0-.17-.08s0-.16.14-.18c.6-.07.73-.49.76-1,.09-1.34.08-2.68.06-4a.78.78,0,0,0-.63-.83c-.1,0-.28,0-.26-.17s.21-.11.32-.11c1.54,0,1.54,0,2.56,1.14S1047.57,94.05,1048.65,95.28Z" transform="translate(-756.29 -0.04)"/>
    <path d="M978.09,90.62h2.15c.25,0,.41,0,.49.31a7.53,7.53,0,0,0,.41,1c0,.11.14.22,0,.31s-.18,0-.24-.12a.8.8,0,0,1-.15-.17,2.83,2.83,0,0,0-2.93-1c-.2,0-.29.09-.29.29v2.15c0,.15,0,.25.21.24a3.63,3.63,0,0,0,1.13-.16,1,1,0,0,0,.63-.87c0-.1,0-.21.17-.21s.14.14.14.23v2.46c0,.1,0,.22-.13.23s-.15-.1-.19-.19a3.65,3.65,0,0,0-.28-.64,1.52,1.52,0,0,0-1.56-.53c-.15.06-.12.19-.12.29v1.93a.57.57,0,0,0,.5.62h.08c.13,0,.32,0,.32.14s-.2.12-.31.12h-2.37c-.1,0-.27.06-.27-.12s.13-.13.23-.15a.73.73,0,0,0,.62-.82v-4.3c0-.39-.11-.69-.55-.75-.11,0-.27,0-.24-.18s.17-.08.26-.08Z" transform="translate(-756.29 -0.04)"/>
    <path d="M991,93.28V91.7a.69.69,0,0,0-.56-.81h-.05c-.09,0-.22,0-.22-.15s.15-.11.24-.11h2.33c.08,0,.19,0,.2.1s-.07.14-.16.15c-.52.1-.65.45-.64.94V94.7a1.84,1.84,0,0,0,1.66,2,1.72,1.72,0,0,0,.92-.14A1.68,1.68,0,0,0,996,94.9a24.26,24.26,0,0,0,0-3.19.87.87,0,0,0-.74-.82c-.09,0-.27,0-.26-.16s.18-.11.28-.11h1.84c.08,0,.19,0,.21.09s-.06.15-.16.16c-.64.11-.72.6-.74,1.12q-.06,1.38-.09,2.76a2.18,2.18,0,0,1-2,2.34h-.29a6.46,6.46,0,0,1-.88,0A2.13,2.13,0,0,1,991,95v-.15C991,94.3,991,93.79,991,93.28Z" transform="translate(-756.29 -0.04)"/>
    <path d="M938,93.26V91.69a.69.69,0,0,0-.54-.8h0c-.1,0-.27,0-.23-.19s.17-.08.26-.08h2.19c.1,0,.27-.07.28.11s-.16.14-.26.17a.65.65,0,0,0-.53.66,34.05,34.05,0,0,0,0,3.5,1.66,1.66,0,0,0,1.7,1.62h0a1.71,1.71,0,0,0,2-1.39.77.77,0,0,0,0-.15,18.08,18.08,0,0,0,.06-3.45c0-.48-.35-.71-.79-.81-.09,0-.23,0-.22-.15s.15-.11.24-.11h1.88c.08,0,.19,0,.21.1s-.07.14-.16.15c-.59.11-.71.54-.73,1,0,.92-.07,1.83-.08,2.75a2.2,2.2,0,0,1-2,2.41,1.82,1.82,0,0,1-.33,0,4.35,4.35,0,0,1-1.14,0A2.11,2.11,0,0,1,938,94.82C938,94.32,938,93.79,938,93.26Z" transform="translate(-756.29 -0.04)"/>
    <path d="M909,91.75v.79c0,.08,0,.22-.11.23s-.15-.11-.18-.2a2.85,2.85,0,0,0-.64-1,2.22,2.22,0,0,0-3.13-.22,2.14,2.14,0,0,0-.47.57,3.48,3.48,0,0,0-.21,3.51,2.23,2.23,0,0,0,2.26,1.35,2.4,2.4,0,0,0,2.14-1.57.32.32,0,0,1,.08-.25.16.16,0,0,1,.17-.1c.1,0,.09.1.09.17v1.71c0,.07,0,.15-.09.18a.2.2,0,0,1-.22-.1c-.18-.29-.37-.2-.62-.09a4.3,4.3,0,0,1-3.89-.17,2.84,2.84,0,0,1-1.5-2.81,3.09,3.09,0,0,1,2-3,4.08,4.08,0,0,1,3.4.14c.24.11.41.18.57-.09a.22.22,0,0,1,.22-.12c.14,0,.09.17.09.26A2.47,2.47,0,0,1,909,91.75Z" transform="translate(-756.29 -0.04)"/>
    <path d="M1020.55,97h-1.1c-.09,0-.22,0-.23-.12s.09-.13.18-.14c.38-.08.43-.3.33-.65-.45-1.48-.44-1.49-2-1.49-.81,0-.81,0-1.12.75-.09.23-.19.45-.28.69-.15.45-.09.56.36.69.11,0,.28,0,.25.17s-.18.1-.29.1h-1.45c-.09,0-.22,0-.26-.09s.09-.16.19-.18a.91.91,0,0,0,.64-.55,45,45,0,0,0,2-4.56c.17-.49.55-.68.8-1s.27,0,.33.19c.36,1,.72,1.91,1.09,2.86l.94,2.4a1.06,1.06,0,0,0,.78.71c.08,0,.18,0,.18.14s-.15.12-.24.12Zm-3.47-2.72h1.73c.15,0,.23,0,.17-.2l-.89-2.21Z" transform="translate(-756.29 -0.04)"/>
    <path d="M1025.16,93.63V91.52c0-.44-.14-.58-.55-.51h-.13a1.68,1.68,0,0,0-1.87,1.12c0,.09,0,.31-.24.23s0-.21,0-.31a.14.14,0,0,1,0-.09c.08-.44,0-1,.29-1.28s.82,0,1.26,0c1.46,0,2.92.06,4.38-.05.62,0,.62-.08.73.52.06.33.11.66.16,1,0,.09,0,.18-.06.23s-.15,0-.19-.12l-.06-.12c-.75-1.27-.87-1.12-2.34-1.13-.21,0-.24.13-.23.29V96c0,.45.26.64.67.71.11,0,.27,0,.23.18s-.17.09-.26.09h-2.5c-.09,0-.23,0-.24-.11s.12-.13.21-.15c.63-.17.74-.3.74-.94V93.63Z" transform="translate(-756.29 -0.04)"/>
    <path d="M962.16,93.71v2.14c0,.64.06.71.67.9.1,0,.27,0,.23.18s-.17.09-.26.09h-2.46c-.09,0-.26.06-.26-.13s.13-.12.23-.13A.76.76,0,0,0,961,96V91.27c0-.18-.06-.27-.25-.26a1.34,1.34,0,0,1-.4,0,1.68,1.68,0,0,0-1.9,1.13c0,.1,0,.28-.2.24s-.09-.22-.08-.33c.07-.46,0-1.06.26-1.35s.87,0,1.33,0a36.2,36.2,0,0,0,4.77-.14c.16,0,.21,0,.23.17l.24,1.42c0,.08.05.18-.07.22s-.15,0-.19-.12,0,0,0-.08A2,2,0,0,0,962.44,91c-.26,0-.27.15-.27.34Z" transform="translate(-756.29 -0.04)"/>
    <path d="M968.61,97h-1.19c-.09,0-.23,0-.24-.12s.1-.13.19-.14c.51-.06.67-.4.69-.86a.29.29,0,0,1,0-.13,3.49,3.49,0,0,0-.76-2.81c-.36-.45-.64-1-1-1.46a1.35,1.35,0,0,0-.7-.63c-.1,0-.18,0-.16-.16s.14-.09.22-.09H968c.08,0,.23-.06.23.11s-.14.12-.23.14h0c-.46.11-.52.23-.28.63.37.63.76,1.24,1.15,1.86.09.15.17.31.33.06.37-.61.78-1.2,1.13-1.82.25-.44.17-.57-.32-.72-.1,0-.27,0-.26-.16s.18-.11.28-.11h1.67c.08,0,.19,0,.2.1s-.07.14-.16.16a1.7,1.7,0,0,0-1,.84,12.81,12.81,0,0,1-.93,1.38c-.86,1-.55,2.08-.55,3.16,0,.33.31.43.59.49.1,0,.23,0,.22.16s-.15.11-.24.11Z" transform="translate(-756.29 -0.04)"/>
    <path d="M955.13,93.32V91.7c0-.42-.15-.75-.62-.82-.09,0-.23,0-.22-.15s.15-.11.23-.11h2.32c.08,0,.19,0,.22.09s-.1.16-.2.17c-.48.09-.6.41-.6.87v4.11c0,.49.1.84.65.9.09,0,.18,0,.18.15s-.12.11-.2.11h-2.41c-.07,0-.16,0-.18-.09s.06-.15.15-.17c.58-.09.68-.49.67-1V93.31Z" transform="translate(-756.29 -0.04)"/>
    <path d="M1031.1,93.81v-2c0-.63-.07-.72-.65-.91-.1,0-.23,0-.2-.17s.13-.09.21-.09h2.32c.09,0,.23,0,.24.12s-.1.13-.18.14c-.53.09-.62.45-.62.91V96c0,.45.17.69.59.76.1,0,.24,0,.24.15s-.17.12-.27.12h-2.28c-.09,0-.23,0-.25-.1s.1-.15.2-.17c.5-.08.64-.43.64-.89V93.81Z" transform="translate(-756.29 -0.04)"/>
    <path d="M1037.4,77.13a1.54,1.54,0,0,1-1.55,1.55h0a1.58,1.58,0,0,1-1.57-1.55,1.54,1.54,0,0,1,1.52-1.56h.07a1.52,1.52,0,0,1,1.54,1.48Z" transform="translate(-756.29 -0.04)"/>
    <path d="M933.59,88.16a1.17,1.17,0,0,1,1.17,1.17,1.18,1.18,0,0,1-1.18,1.15,1.16,1.16,0,0,1-1.16-1.16h0a1.14,1.14,0,0,1,1.13-1.15Z" transform="translate(-756.29 -0.04)"/>
    <path d="M924.44,88.16a1.16,1.16,0,1,1-1.17,1.17h0a1.14,1.14,0,0,1,1.12-1.16Z" transform="translate(-756.29 -0.04)"/>
    <path d="M930.39,88.16a1.11,1.11,0,0,1,1.15,1.07v.08a1.14,1.14,0,0,1-1.09,1.17h-.05a1.15,1.15,0,0,1-1.17-1.13v0a1.14,1.14,0,0,1,1.12-1.16Z" transform="translate(-756.29 -0.04)"/>
    <path d="M921.14,88.16a1.14,1.14,0,0,1,1.18,1.1v0a1.16,1.16,0,0,1-1.14,1.18h0a1.16,1.16,0,1,1,0-2.32Z" transform="translate(-756.29 -0.04)"/>
    <path class="cls-4" d="M1272.46,97.47v5.88c0,.64-.13.93-.86.91-1.83,0-1.83,0-1.82-1.81V99.14c0-.55-.19-.71-.71-.69h-4.15c-.56,0-.77.14-.76.74v4.3c0,.55-.1.78-.72.78-1.94,0-1.94,0-1.94-1.93V92.07a.76.76,0,0,1,.69-.88c2-.52,2-.53,2,1.53v3c0,.43.06.65.57.64h4.47c.45,0,.56-.16.56-.58V92c0-.45.14-.64.56-.72a13.08,13.08,0,0,0,1.36-.38c.54-.17.78-.07.77.58v6Z" transform="translate(-756.29 -0.04)"/>
    <path class="cls-4" d="M1249.24,98.82v4.72c0,.52-.15.78-.71.71a3.47,3.47,0,0,0-.91,0c-.72.08-1.2,0-1-.93.06-.33-.16-.53-.42-.26a3.9,3.9,0,0,1-5.19.69c-2.06-1.19-2.64-3.2-2.51-5.46a5,5,0,0,1,4-4.9,3.92,3.92,0,0,1,3.34.84c.32.26.41.61.94,0s1.45-.55,2.23-.7c.37-.07.24.36.25.57v4.71Zm-8.11-.23c0,2.11,1.18,3.43,2.78,3.39a2.68,2.68,0,0,0,2.51-2,3.43,3.43,0,0,0-1.11-3.78,2.47,2.47,0,0,0-2.66-.16A2.88,2.88,0,0,0,1241.13,98.59Z" transform="translate(-756.29 -0.04)"/>
    <path class="cls-4" d="M1222.46,100.41a5.61,5.61,0,0,0,.58,0c.54-.08.81.11,1,.67.29.92,1.18,1.27,2.31,1a1.64,1.64,0,0,0,1.37-1.64,1.7,1.7,0,0,0-1.29-1.63c-.88-.32-1.79-.55-2.68-.85-2.08-.7-2.81-1.73-2.7-3.78a3.81,3.81,0,0,1,3.16-3.55,6.18,6.18,0,0,1,3.89.32,3.46,3.46,0,0,1,2.09,2.78c.08.45,0,.69-.54.65a9.58,9.58,0,0,0-1.08,0c-.66,0-1.24.06-1.51-.82s-1.06-1-2-.81a1.43,1.43,0,0,0-1.31,1.37,1.62,1.62,0,0,0,1,1.74,18.05,18.05,0,0,0,2.67.86c2.19.68,3.07,1.7,3,3.56a4,4,0,0,1-3.24,3.88,5.78,5.78,0,0,1-4.75-.76,3.29,3.29,0,0,1-1.37-2.09c-.19-.85-.11-.93.79-.93h.58Z" transform="translate(-756.29 -0.04)"/>
    <path class="cls-4" d="M1313.14,99.77h-3.07c-.63,0-.69.25-.52.75a2.34,2.34,0,0,0,3,1.43,2.51,2.51,0,0,0,.93-.61c.54-.63,1.16-.38,1.75-.41.43,0,1-.23,1.25.14s-.23.93-.52,1.31a5,5,0,0,1-5.37,1.88,4.59,4.59,0,0,1-3.69-3.72c-.52-2.3-.25-4.47,1.7-6.11a5.42,5.42,0,0,1,6-.39,5.35,5.35,0,0,1,2.42,5.27c-.07.41-.27.48-.62.47Zm-1.36-1.8h1.82c.6,0,.65-.31.51-.76a2.46,2.46,0,0,0-2.39-1.57,2.42,2.42,0,0,0-2.2,1.72c-.1.39-.07.63.44.6s1.21,0,1.82,0Z" transform="translate(-756.29 -0.04)"/>
    <path class="cls-4" d="M1273.76,98.73a5.19,5.19,0,0,1,5-5.4,3.84,3.84,0,0,1,.48,0c3.18.06,5.3,2.4,5.23,5.77a5.35,5.35,0,0,1-10.7.17,4.87,4.87,0,0,1,0-.54Zm2.73.11v.65a2.66,2.66,0,0,0,2.13,2.52,2.52,2.52,0,0,0,2.69-1.32,3.87,3.87,0,0,0,0-3.65A2.5,2.5,0,0,0,1278,95.9a2.22,2.22,0,0,0-.57.39,3,3,0,0,0-.9,2.55Z" transform="translate(-756.29 -0.04)"/>
    <path class="cls-4" d="M1295.57,93.47v10c0,.64-.19.84-.79.78a5.57,5.57,0,0,0-1,0c-.56,0-1,0-.89-.76,0-.13,0-.3-.14-.34s-.33.16-.47.27a4,4,0,0,1-5,.19,4.38,4.38,0,0,1-1.63-3.64c-.06-1.74,0-3.48,0-5.22a.65.65,0,0,1,.54-.73h0a11.33,11.33,0,0,0,1.52-.4c.49-.19.56,0,.56.44v5.3c0,1.77,1,2.76,2.65,2.6a2.09,2.09,0,0,0,1.94-2.18c.07-1.63,0-3.26,0-4.89,0-.53.11-.81.67-.91S1294.84,93.66,1295.57,93.47Z" transform="translate(-756.29 -0.04)"/>
    <path class="cls-4" d="M1304.16,96.81c-.76,0-1.37.14-1.73-.75s-2.09-.77-2.63-.07a.92.92,0,0,0,.1,1.3,1,1,0,0,0,.25.15,9.92,9.92,0,0,0,2.13.66c.34.1.69.17,1,.28a2.67,2.67,0,0,1,2.21,2.36,2.93,2.93,0,0,1-1.82,3.14,5.57,5.57,0,0,1-4.88-.06,3.22,3.22,0,0,1-1.73-2.2c-.13-.5-.06-.81.57-.76a8.55,8.55,0,0,0,1.24,0,.86.86,0,0,1,1,.6,1.84,1.84,0,0,0,2.57.46,1.68,1.68,0,0,0,.29-.24,1,1,0,0,0-.2-1.4,1.18,1.18,0,0,0-.19-.11,10.92,10.92,0,0,0-1.65-.53c-.58-.17-1.17-.29-1.74-.49a2.68,2.68,0,0,1-1.88-3.31,2.63,2.63,0,0,1,.88-1.36,5.14,5.14,0,0,1,6.41-.08,2.85,2.85,0,0,1,.54.61c.32.5.67,1.09.44,1.62S1304.5,96.72,1304.16,96.81Z" transform="translate(-756.29 -0.04)"/>
    <path class="cls-5" d="M1267.65,58.63c-.28.5,0,.8.12,1.1.36.77.77,1.52,1.12,2.3.15.32.31.73-.14.93s-.62-.16-.79-.5c-.86-1.69-1.73-3.38-2.57-5.09-.19-.39-.36-.77-.84-.79s-.66.41-.84.79c-.1.22-.2.45-.32.67s-.37.59-.77.37-.32-.54-.16-.86l1-2.08c.86-1.75,1.74-3.5,2.6-5.26.19-.38.4-.75.89-.75s.7.37.89.75q1.8,3.63,3.61,7.26c.19.38.33.76-.16,1s-.63-.18-.79-.5l-1.3-2.66a1.48,1.48,0,0,0,.09,1.13c.65,1.18,1.23,2.4,1.83,3.61.16.32.24.66-.14.87s-.65-.11-.81-.44a18.25,18.25,0,0,1-1.34-2.91c-.09-.28-.29-.46-.5-.38s-.08.37,0,.54c.64,1.29,1.29,2.56,1.93,3.84.1.2.19.4.28.6s.26.66-.13.86-.67-.1-.85-.41-.27-.59-.42-.89C1268.68,60.71,1268.19,59.71,1267.65,58.63Z" transform="translate(-756.29 -0.04)"/>
    <path class="cls-6" d="M1259.86,63.57c.46.4.94.24,1.41.18.65-.09,1.3-.21,2-.33.35-.06.7-.11.79.34s-.28.62-.64.68l-4.16.72c-.52.09-1,.16-1.55.27-.79.17-1,.75-.47,1.39.19.23.39.46.6.68s.5.61.19.93-.7,0-1-.24c-.62-.62-1.25-1.24-1.85-1.88-1.26-1.33-2.51-2.67-3.75-4-.63-.68-.41-1.39.52-1.55,2.61-.45,5.23-.88,7.84-1.31.37-.06.87-.16.91.4s-.39.59-.81.65c-.65.08-1.3.2-2,.31-.17,0-.47,0-.46.23s.33.25.52.22c1.12-.17,2.23-.38,3.34-.56a5.56,5.56,0,0,1,1-.1c.24,0,.54.07.57.38a.52.52,0,0,1-.49.56c-1,.19-2.07.36-3.09.57-.21,0-.63-.1-.57.26s.44.2.7.16l4.08-.7a1.36,1.36,0,0,1,.89,0,.42.42,0,0,1,.18.51c-.06.29-.31.37-.56.41l-3.75.64Z" transform="translate(-756.29 -0.04)"/>
    <path class="cls-7" d="M1262,72.84c.4-.11.37-.44.41-.73.13-1,.29-1.91.36-2.87,0-.44.32-.51.58-.52a.48.48,0,0,1,.45.62c-.27,1.85-.52,3.71-.79,5.57a5.51,5.51,0,0,0-.1.9.73.73,0,0,0,1.1.69c.33-.14.63-.34,1-.51s.65-.23.86.16-.09.62-.39.78l-2.78,1.46-4,2.1a1.26,1.26,0,0,1-1.39.09c-.5-.32-.3-.8-.24-1.2.37-2.62.77-5.23,1.16-7.85,0-.38.14-.75.62-.7s.41.45.37.77c-.11,1-.25,1.9-.39,2.89.48-.09.45-.41.52-.7.28-1,.1-2.13.32-3.18a6.85,6.85,0,0,0,.33-1.09.45.45,0,0,1,.41-.49h.13c.33.06.49.29.43.68-.2,1.17-.36,2.34-.54,3.51v.46c.44,0,.47-.36.52-.64.21-1.42.42-2.84.62-4.25a1,1,0,0,1,0-.39c.16-.31.09-.87.67-.74s.41.54.34.94c-.18,1.12-.35,2.23-.5,3.35A1.22,1.22,0,0,0,1262,72.84Z" transform="translate(-756.29 -0.04)"/>
    <path class="cls-8" d="M1277.93,65.41c-.39-.06-.57.26-.78.48-.81.82-1.57,1.68-2.4,2.48-.29.28-.61,1-1.12.44s.1-.83.4-1.15c.76-.82,1.54-1.62,2.25-2.49-.75,0-1.06.61-1.48,1-.85.83-1.63,1.72-2.44,2.58-.23.24-.47.55-.83.21s-.16-.65.11-.93l2.42-2.5a1.41,1.41,0,0,0,.47-.66c-.38-.15-.57.12-.77.33l-1.89,2c-.21.21-.48.45-.79.17a.56.56,0,0,1,0-.86l3.82-4a5.07,5.07,0,0,0,.49-.55.68.68,0,0,0,0-1,.68.68,0,0,0-.32-.18,3.86,3.86,0,0,0-1-.25c-.39-.07-.82-.1-.75-.66s.52-.41.84-.36c1.85.28,3.7.59,5.55.89.71.12,1.41.3,2.12.36,1.23.11,1.33,1,.58,1.76l-4.19,4.36c-.46.48-.91,1-1.37,1.43-.25.26-.55.45-.87.16s-.1-.63.12-.87c.5-.55,1-1.06,1.55-1.61C1277.79,65.84,1278,65.74,1277.93,65.41Z" transform="translate(-756.29 -0.04)"/>
    <path class="cls-9" d="M1271.68,77.08a9.16,9.16,0,0,0-2.45-1.48c-.58-.35-1.2-.65-1.8-1-.31-.17-.56-.42-.31-.79s.51-.21.8-.06l2.87,1.49a.49.49,0,0,0,.49.07c-.06-.44-.43-.54-.72-.7-1.22-.64-2.46-1.26-3.67-1.91-.31-.17-.83-.31-.58-.82s.7-.25,1.07-.06c1,.49,2,1,2.94,1.51.23.12.44.32.85.09a13.8,13.8,0,0,0-2.66-1.53c-.39-.23-1-.37-.74-1s.8-.12,1.19.07l4.65,2.35c.35.18.71.41,1.08.11a1,1,0,0,0,.26-1.06,5.58,5.58,0,0,1-.11-.82c0-.35,0-.72.41-.78s.54.26.6.62c.19,1.26.41,2.51.6,3.76.22,1.44.42,2.89.63,4.33.06.41.14.83-.25,1.15s-.83.13-1.23-.07L1268.86,77c-.12-.07-.24-.14-.35-.22s-.45-.37-.29-.68a.56.56,0,0,1,.79-.18c.61.31,1.21.66,1.83,1C1271.06,77.06,1271.27,77.33,1271.68,77.08Z" transform="translate(-756.29 -0.04)"/>
    <path class="cls-4" d="M1235.16,98.62v2.16c0,.89.23,1.1,1.12,1.16.4,0,1-.23,1.14.16a6.1,6.1,0,0,1,0,2c0,.19-.25.17-.41.17h-1.66a2.77,2.77,0,0,1-2.86-3.13V96.5c0-.46,0-.76-.61-.69-.39,0-.53-.19-.52-.57a11.22,11.22,0,0,0,0-1.16c0-.38.13-.6.53-.55.57.08.59-.26.61-.7s-.26-1,.15-1.23a10,10,0,0,1,2.29-.66c.24,0,.2.28.2.46V93c0,.57.13.62.56.57h.17c1.7,0,1.69,0,1.6,1.69,0,.42-.15.58-.58.59s-1.33-.29-1.64.17-.09,1.11-.11,1.69Z" transform="translate(-756.29 -0.04)"/>
    <path class="cls-4" d="M1251,99.15V94.76a.63.63,0,0,1,.51-.73h0c.38-.09.75-.18,1.12-.3.64-.22,1.21-.35,1,.68a.42.42,0,0,0,.15.35c.2.11.28-.11.37-.23a3.39,3.39,0,0,1,2-1.16c.37-.08.58,0,.57.46v.58a4.53,4.53,0,0,1,0,1.47c-.23.58-.89.19-1.34.32a1.86,1.86,0,0,0-1.58,1.86c-.08,1.82-.1,3.64-.08,5.46,0,.59-.17.75-.75.74-1.94,0-1.94,0-1.94-1.87V99.15Z" transform="translate(-756.29 -0.04)"/>
    <path class="cls-10" d="M1149.43,49.83a29.2,29.2,0,0,0,2.52,4.46c1.49,2.58,3,5.11,4.57,7.63-.23.36-.53.23-.78.23a21.9,21.9,0,0,0-3.24,0c-2.44.4-3.8-.58-4.92-2.76-1.69-3.3-3.76-6.41-5.67-9.6Z" transform="translate(-756.29 -0.04)"/>
    <path class="cls-11" d="M1132.94,62.75h1.82c.53,0,.91.13.9.83v6.2c0,.68-.22.86-.87.85h-7.52a1.09,1.09,0,0,0-1.14.61q-1.43,2.7-2.91,5.35c-.29.52-.23.68.39.71,1.65.06,1.65.08,1.67,1.75,0,2,0,2-1.85,1.28-9.92-4-11.88-17.79-3.48-24.43a14.51,14.51,0,0,1,16.56-1.2c.66.38.74.66.34,1.32C1135.55,58.16,1134.31,60.37,1132.94,62.75Z" transform="translate(-756.29 -0.04)"/>
    <path class="cls-10" d="M1157.08,90.08c-1.76-2.63-3.36-5-5-7.45a2.54,2.54,0,0,1-.49-1.5V72.19c0-.82.26-1,1-1h6.19c.64,0,.8.21.8.81V95.36c0,.63-.13.91-.84.88-1.28-.06-2.57,0-3.86,0-.68,0-.86-.22-.84-.87,0-1.46.06-2.92,0-4.37,0-.81.28-1,1-.92A17.33,17.33,0,0,0,1157.08,90.08Z" transform="translate(-756.29 -0.04)"/>
    <path class="cls-10" d="M1160.17,83.73V72.15c0-.75.17-1,.95-1,1.49.06,3,0,4.47,0,.64,0,.8.21.8.82V95.44c0,.57-.17.77-.75.76-1.52,0-3-.06-4.57,0-.73,0-.89-.23-.89-.92V83.73Z" transform="translate(-756.29 -0.04)"/>
    <path class="cls-10" d="M1136.27,72.19V63.65c0-.68.17-.95.91-.94h8.13c.67,0,.86.21.86.87V80.75c0,.69-.16,1-.9.94h-8c-.74,0-1-.19-1-1v-8.5Zm5,1.14H1143c.28,0,.68.16.8-.23a1.49,1.49,0,0,0-.07-1.08,4.77,4.77,0,0,1,0-4.17,1.44,1.44,0,0,0,.07-1c-.09-.42-.49-.28-.76-.28h-3.56c-.27,0-.68-.16-.77.25a1.24,1.24,0,0,0,.12,1.06,5.56,5.56,0,0,1,0,4.13,1.2,1.2,0,0,0-.08,1.06c.11.39.51.24.79.25C1140.12,73.35,1140.69,73.34,1141.27,73.33Z" transform="translate(-756.29 -0.04)"/>
    <path class="cls-10" d="M1130.42,90.07h2.06c.67,0,.7.19.69.7v4.67c0,.65-.23.79-.83.78h-5.68c-.55,0-.79-.13-.78-.73V77.93c0-.54.21-.69.72-.69H1135c.52,0,.73.16.71.7v3.55a1.87,1.87,0,0,1-.46,1.1c-1.47,2.19-3,4.37-4.41,6.56C1130.65,89.42,1130.37,89.65,1130.42,90.07Z" transform="translate(-756.29 -0.04)"/>
    <path class="cls-10" d="M1156.06,89.53h-23.6c-.3,0-.71.14-.86-.11s.2-.59.37-.85c1.26-1.93,2.55-3.83,3.81-5.76a1.23,1.23,0,0,1,1.15-.64h13.51a.88.88,0,0,1,.88.35Z" transform="translate(-756.29 -0.04)"/>
    <path class="cls-10" d="M1148.57,62a2.53,2.53,0,0,1-1.41.2H1135c-1.09,0-1.1,0-.58-.9l6.42-10.81c.11-.17.23-.32.43-.6Z" transform="translate(-756.29 -0.04)"/>
    <path class="cls-10" d="M1140.94,90.08h6.19c.67,0,.88.2.86.86v4.47c0,.58-.12.84-.79.83h-12.69c-.57,0-.77-.18-.75-.75V90.82c0-.6.23-.74.78-.73Z" transform="translate(-756.29 -0.04)"/>
    <path class="cls-10" d="M1146.73,72.19V63.66c0-.66.12-1,.88-.95h5.79c.72,0,.84.3.83.91s0,1-.8.93-1.75-.34-2.24.16-.13,1.48-.13,2.25V80.67c0,.82-.25,1.09-1,1-1.06-.12-2.45.46-3.11-.25s-.15-2-.17-3C1146.71,76.32,1146.73,74.26,1146.73,72.19Z" transform="translate(-756.29 -0.04)"/>
    <path class="cls-10" d="M1160.06,70.62h-7.61c-.65,0-.89-.17-.86-.85.05-1.28,0-2.57,0-3.85,0-.6.15-.83.79-.83h12.78a.77.77,0,0,1,.8.47c.79,1.45,1.58,2.91,2.41,4.34.38.67.05.71-.5.71Z" transform="translate(-756.29 -0.04)"/>
    <path class="cls-10" d="M1129.82,76.69h-5.29c-.52,0-.7-.12-.41-.63q1.25-2.2,2.46-4.44a.8.8,0,0,1,.83-.44H1135c.51,0,.72.16.71.69V76c0,.57-.26.66-.74.66h-5.15Z" transform="translate(-756.29 -0.04)"/>
    <path class="cls-10" d="M1148.58,93c.12-.82-.45-2.11.22-2.74s1.87-.14,2.84-.16c1.83,0,1.83,0,1.83,1.78v3.65c0,.52-.15.73-.69.71h-3.55c-.57,0-.68-.24-.66-.73C1148.6,94.72,1148.58,93.94,1148.58,93Z" transform="translate(-756.29 -0.04)"/>
    <path class="cls-10" d="M1149.51,99.87c1.25,0,1.64.26,1.46,1.33a22.91,22.91,0,0,0,0,3.1c0,.29.23.76-.35.78s-.36-.44-.44-.74c-.12-.5.38-1.42-.44-1.4-.62,0-.17.9-.3,1.38-.08.28.17.76-.39.75s-.36-.48-.36-.77v-3.56C1148.63,100,1148.89,99.73,1149.51,99.87Zm.72,1.4c-.07-.25.09-.71-.4-.75s-.4.46-.38.73-.26.85.28.9S1150.2,101.69,1150.23,101.27Z" transform="translate(-756.29 -0.04)"/>
    <path class="cls-10" d="M1166,102.15v-1.42c0-.31-.23-.85.4-.83s.33.5.33.79v3c0,.34,0,.74.45.76s.51-.43.51-.79v-3.25c0-.26,0-.58.37-.57s.37.32.37.59V104a1.06,1.06,0,0,1-1,1.11h-.2c-.77,0-1.23-.35-1.26-1.14v-1.83Z" transform="translate(-756.29 -0.04)"/>
    <path class="cls-10" d="M1144.94,102.43v-1.52c0-.52-.2-1.13.73-1,.74.06,1.69-.1,1.54,1s-.06,2.48,0,3.72c0,.24,0,.48-.36.46s-.38-.23-.39-.48,0-.74,0-1.11,0-.59-.38-.61-.35.33-.36.58,0,.81,0,1.21-.14.43-.44.41-.31-.21-.31-.42v-2.23Zm.76-1.11c.1.29-.2.78.28.84s.5-.44.5-.8.09-.85-.45-.83S1145.79,101,1145.7,101.32Z" transform="translate(-756.29 -0.04)"/>
    <path class="cls-10" d="M1118.94,102.49v2c0,.26,0,.58-.38.56s-.35-.34-.36-.59v-1.32c0-.28-.11-.44-.42-.45s-.5.13-.49.47v1.42c0,.26,0,.47-.38.47s-.37-.21-.37-.47v-4.27c0-.26.06-.47.39-.46s.36.23.37.48v1.33c0,.3.17.4.46.4s.45-.1.45-.4v-1.32c0-.25,0-.48.37-.49s.36.22.37.47Z" transform="translate(-756.29 -0.04)"/>
    <path class="cls-10" d="M1158.22,102.45v-1.83c0-.29-.16-.75.4-.73s.33.42.35.69,0,.68,0,1,.11.51.47.5.46-.2.47-.51,0-.88,0-1.31c0-.23.07-.39.34-.39a.34.34,0,0,1,.38.37v4.45c0,.22-.08.39-.35.39a.34.34,0,0,1-.38-.3v-.07a2.12,2.12,0,0,0,0-.71c-.13-.44.42-1.28-.47-1.25s-.3.85-.44,1.3a3,3,0,0,0,0,.6c0,.21,0,.41-.32.43s-.43-.13-.43-.42v-2.22Z" transform="translate(-756.29 -0.04)"/>
    <path class="cls-10" d="M1164.56,102.43V104a1.11,1.11,0,0,1-1,1.18h-.21a1.1,1.1,0,0,1-1.22-1,.88.88,0,0,1,0-.23V101.1a1.14,1.14,0,0,1,1-1.27,1,1,0,0,1,.25,0,1.13,1.13,0,0,1,1.23,1,1.31,1.31,0,0,1,0,.28v1.32Zm-.74,0h0v-1.32c0-.44-.11-.64-.48-.67s-.49.31-.49.63v2.83c0,.29.12.56.45.57a.48.48,0,0,0,.5-.48v0a14.52,14.52,0,0,0,0-1.49Z" transform="translate(-756.29 -0.04)"/>
    <path class="cls-10" d="M1128.47,103.18v1.4c0,.24,0,.49-.35.5s-.4-.17-.4-.45v-4.26c0-.25,0-.48.36-.49s.39.2.39.46a4,4,0,0,0,.18,1.42c.25-.5.51-1,.74-1.49.16-.33.41-.53.72-.35s0,.45-.08.6a2.86,2.86,0,0,0,0,3.71c.13.21.59.59.07.83s-.63-.22-.78-.58-.41-.9-.61-1.35Z" transform="translate(-756.29 -0.04)"/>
    <path class="cls-10" d="M1120.36,102.19v-1.73c0-.26,0-.57.36-.58s.38.29.39.56v3c0,.39-.2,1,.49,1s.44-.65.45-1v-2.84c0-.27-.13-.67.34-.7s.39.37.39.65v3.35a1.07,1.07,0,0,1-.89,1.22.82.82,0,0,1-.27,0,1.11,1.11,0,0,1-1.28-.91,1,1,0,0,1,0-.3C1120.35,103.34,1120.36,102.76,1120.36,102.19Z" transform="translate(-756.29 -0.04)"/>
    <path class="cls-10" d="M1138,102.41V101c0-.6-.17-1.24.86-1.16.83.07,1.57.14,1.43,1.19a16.72,16.72,0,0,0,0,2.83,1.47,1.47,0,0,1-1.56,1.36,1.63,1.63,0,0,1-.56-.16c-.27-.15-.21-.4-.21-.62C1138,103.76,1138,103.09,1138,102.41Zm.7,1.16c.13.32-.25.92.44.9s.49-.55.49-.92.11-.81-.45-.85-.36.55-.47.87Zm0-2.27c.07.3-.16.76.38.78s.5-.44.51-.79,0-.82-.5-.82-.25.53-.37.83Z" transform="translate(-756.29 -0.04)"/>
    <path class="cls-10" d="M1170.77,105.11a.87.87,0,0,1-1-.73.17.17,0,0,1,0-.07c0-.26-.18-.64.27-.74s.41.22.47.49.16.46.46.42.38-.35.38-.63c0-.57-.44-.89-.8-1.23a2,2,0,0,1-.76-2c.15-.71.69-.86,1.32-.8s.89.32.86.92c0,.19,0,.42-.22.49a.33.33,0,0,1-.42-.2.29.29,0,0,1,0-.09c-.07-.31-.18-.67-.59-.43s-.28.62-.08.9c.32.47.72.89,1.07,1.34a1.74,1.74,0,0,1,.18,1.82C1171.72,105,1171.32,105.12,1170.77,105.11Z" transform="translate(-756.29 -0.04)"/>
    <path class="cls-10" d="M1124.22,102.47a12.34,12.34,0,0,1,0-1.72,1,1,0,0,1,1.34-.9.85.85,0,0,1,.88.82v.09c0,.22.08.5-.28.53a.33.33,0,0,1-.41-.23.19.19,0,0,1,0-.08c0-.27-.09-.59-.47-.5s-.32.41-.33.66V104c0,.23.07.5.38.51s.35-.19.38-.4.08-.58.47-.49.27.49.24.75c0,.6-.47.76-1,.77s-1.11-.17-1.19-.82A13.82,13.82,0,0,1,1124.22,102.47Z" transform="translate(-756.29 -0.04)"/>
    <path class="cls-10" d="M1134.8,102.4v-1.21c0-1.38.21-1.55,1.56-1.33.21,0,.42,0,.42.32s-.2.32-.41.31c-.47,0-.86,0-.84.65s0,1.09.82,1a.28.28,0,0,1,.33.21.2.2,0,0,1,0,.07c0,.28-.2.35-.41.31-.83-.12-.72.44-.75,1s.11.91.77.83c.24,0,.51,0,.47.36s-.28.23-.47.25c-1.38.18-1.51.08-1.51-1.28V102.4Z" transform="translate(-756.29 -0.04)"/>
    <path class="cls-10" d="M1141.72,102.49v-1.42c0-1.15.57-1.55,1.69-1.19.19.06.3.14.28.34a.29.29,0,0,1-.36.25c-.65-.07-.87.18-.87.86s.23.85.83.77a.29.29,0,0,1,.34.22.13.13,0,0,1,0,.06c0,.27-.18.35-.39.32-.66-.08-.79.24-.78.83s.07,1.07.86,1c.22,0,.4.08.36.35s-.2.22-.37.25c-1.3.27-1.6,0-1.6-1.28Z" transform="translate(-756.29 -0.04)"/>
    <path class="cls-10" d="M1173.43,102.46v-1.32c0-1.27.36-1.55,1.62-1.27.17,0,.34.06.36.27a.33.33,0,0,1-.39.34c-.6-.07-.85.14-.82.78s.06,1,.75.84a.29.29,0,0,1,.35.19.17.17,0,0,1,0,.07c0,.28-.15.37-.37.35-.93-.12-.68.55-.73,1a.62.62,0,0,0,.76.73c.19,0,.43,0,.44.28s-.28.3-.51.32c-1.42.16-1.47.1-1.47-1.31Z" transform="translate(-756.29 -0.04)"/>
    <path class="cls-10" d="M1153.24,101.67a4.25,4.25,0,0,0,.7-1.51.36.36,0,0,1,.43-.27h0c.31.08.17.31.11.48a10.06,10.06,0,0,0-.82,4.33.34.34,0,0,1-.36.38.38.38,0,0,1-.42-.43,9.6,9.6,0,0,0-.79-4.23c-.06-.18-.15-.43.09-.53a.4.4,0,0,1,.53.2l0,.09C1152.92,100.63,1153.06,101.07,1153.24,101.67Z" transform="translate(-756.29 -0.04)"/>
    <path class="cls-10" d="M1131.58,102.47v-2.13c0-.26.06-.47.39-.46s.36.23.36.48v3.24c0,.51,0,1,.71.89.23,0,.51,0,.49.33s-.27.25-.46.27c-1.37.19-1.49.09-1.49-1.3Z" transform="translate(-756.29 -0.04)"/>
    <path class="cls-12" d="M1141.27,73.34h-1.73c-.28,0-.68.14-.79-.25a1.2,1.2,0,0,1,.08-1.06,5.56,5.56,0,0,0,0-4.13,1.24,1.24,0,0,1-.12-1.06c.09-.41.5-.24.77-.25H1143c.27,0,.67-.14.76.28a1.44,1.44,0,0,1-.07,1,4.77,4.77,0,0,0,0,4.17,1.49,1.49,0,0,1,.07,1.08c-.12.39-.52.22-.8.23C1142.42,73.35,1141.84,73.33,1141.27,73.34Z" transform="translate(-756.29 -0.04)"/>
    <a xlink:href="https://eastontowncenter.com/easton-community-foundation">
        <rect x="140.47" y="35.674" width="159.08" height="80.996" style="fill: rgb(216, 216, 216); fill-opacity: 0;"/>
    </a>
    <a xlink:href="https://huckhouse.org/">
        <rect x="345.122" y="35.674" width="82.132" height="80.996" style="fill: rgb(216, 216, 216); fill-opacity: 0;"/>
    </a>
    <a xlink:href="https://www.starhouse.us/">
        <rect x="456.705" y="35.674" width="143.295" height="81.036" style="fill: rgb(216, 216, 216); fill-opacity: 0;"/>
    </a>
</svg>