<?xml version="1.0" encoding="utf-8"?>
<svg id="Layer_1" data-name="Layer 1" viewBox="0 0 609.8 117.04" xmlns="http://www.w3.org/2000/svg">
    <defs>
        <style>.cls-1{fill:#fefdfd;}.cls-2{fill:#e38c64;}.cls-3{fill:#f36582;}.cls-4{fill:#fff;}.cls-5{fill:#4300ff;}.cls-6{fill:#e51636;}.cls-7{fill:#231f20;}</style>
    </defs>
    <g id="Artboard_1" data-name="Artboard 1">
        <path class="cls-1" d="M4.6,116.7c-1.5,0-3.4,1.2-4.5-.9,2.3-.1,4.6-.3,7-.3H529.8c5.5,0,11-.8,16.5-.4,11.6.8,23.3.5,34.9.2,6.2.5,9.4-1.2,9.7-5s-3.1-5.8-9.2-5.5c-.2,0-.3.1-.5.1H569.9c3.2-5.2,3.2-5.1,7.3-5.1,6,0,12,.2,18,0,5.6-.2,9-3.4,9-8s-3.4-7.7-9-7.9c-3-.1-6,.1-9-.1-1.6-.1-3.5.7-5.4-2,6.4,0,12,.2,17.6-.1,6.7-.3,11.3-4.7,11.4-10.3,0-5.9-4.7-10.3-11.6-10.6-5.2-.2-10.3,0-15.5-.1-2,0-4.6.2-4.4-2.6.2-2.3,2.7-1.2,4.2-1.3,6-.4,12,.8,17.9-.8a10,10,0,0,0,7.7-10.3,10.72,10.72,0,0,0-8.8-9.6,25.33,25.33,0,0,0-5.5-.3c-9.5,0-19-.1-28.5,0-4.3.1-6.4-1.1-6-5.9a158.78,158.78,0,0,0,0-16.9c-.1-4.3-1.8-7.7-5.8-9.7A9.57,9.57,0,0,0,542,5.1c-2.8,1.4-3.2,4-3.3,6.8-1.1,5.6-.3,11.2-.5,16.8-.2,8,1,7.1-7.3,7.1H8.1c-2.7,0-5.3.1-8,.2C.1,24.9.2,13.7,0,2.6,0,.5.4-.3,2.6.1a6.7,6.7,0,0,0,2,0" transform="translate(0 0)"/>
        <path class="cls-2" d="M.1,36c2.7-.1,5.3-.2,8-.2H530.9c8.3,0,7,.9,7.3-7.1.2-5.6-.7-11.3.5-16.9,1.5.6,2.5,2.2,4.3,2.3,2.9.1,5.5-.4,5.9-3.8.4-3.2-1.2-5-4.5-5.2h-2.5a9.57,9.57,0,0,1,11.5-1.8c4,1.9,5.8,5.4,5.8,9.7a137.76,137.76,0,0,1-.1,17c-.4,4.9,1.8,6,6,5.9,9.5-.1,19,0,28.5,0a25.33,25.33,0,0,1,5.5.3,10.62,10.62,0,0,1,8.8,9.6,10,10,0,0,1-7.7,10.3c-5.9,1.7-11.9.4-17.9.8-1.5.1-4-1-4.2,1.3-.2,2.8,2.5,2.6,4.4,2.6,5.2,0,10.3-.1,15.5.1,6.9.2,11.6,4.6,11.6,10.6,0,5.6-4.7,10-11.4,10.3-5.6.3-11.2,0-17.6,0,1.9,2.8,3.8,2,5.4,2,3,.1,6,0,9,.1,5.6.2,9,3.3,9,7.9s-3.3,7.8-9,8c-6,.2-12,.1-18,0-4.2,0-4.2-.1-7.3,5.1H581c-3.4,3.5-2.2,7,0,10.4-11.6.3-23.3.6-34.9-.2-5.5-.4-11,.4-16.5.4H7c-2.3,0-4.6.2-7,.3ZM596,70.1c.7,2.4,1.4,4.9,5,4.8,2.9-.1,4.8-1.2,5-4.2a4.87,4.87,0,0,0-4.18-5.48l-.22,0C598.9,65,596.5,66.8,596,70.1Zm.4,26.8c2.6-.1,4.7-1.3,4.6-4.7-.1-3-1.9-4.4-4.8-4.4-3.1,0-5.1,1.3-5.1,4.6C591.1,95.4,593,96.8,596.4,96.9ZM599,50c2.8-.1,5-1.2,4.8-4.3-.2-2.6-1.4-4.8-4.7-4.7s-5.2,1.3-5.1,4.7C594.1,48.7,596,50,599,50Z" transform="translate(0 0)"/>
        <path class="cls-3" d="M581.1,115.3c-2.2-3.5-3.4-7,0-10.4.2,0,.3-.1.5-.1,6.1-.3,9.4,1.8,9.2,5.5S587.2,115.8,581.1,115.3Z" transform="translate(0 0)"/>
        <path class="cls-3" d="M541.9,5h2.5c3.3.2,4.9,2,4.5,5.2-.4,3.4-3,4-5.9,3.8-1.8-.1-2.8-1.7-4.3-2.3C538.8,9.1,539.1,6.4,541.9,5Z" transform="translate(0 0)"/>
        <path class="cls-3" d="M596,70.1c.6-3.3,2.9-5.1,5.5-4.9a4.88,4.88,0,0,1,4.42,5.3,1.36,1.36,0,0,1,0,.2c-.2,3.1-2.2,4.1-5,4.2C597.3,75,596.7,72.5,596,70.1Z" transform="translate(0 0)"/>
        <path class="cls-3" d="M596.4,96.9c-3.4-.1-5.3-1.4-5.3-4.4,0-3.3,1.9-4.7,5.1-4.6,2.9,0,4.8,1.4,4.8,4.4C601,95.5,599,96.8,596.4,96.9Z" transform="translate(0 0)"/>
        <path class="cls-3" d="M599,50c-3,0-4.9-1.3-5-4.4,0-3.3,2-4.6,5.1-4.7s4.5,2.1,4.7,4.7C604,48.8,601.8,50,599,50Z" transform="translate(0 0)"/>
    </g>
    <path d="M339.4,51.8a42,42,0,0,1,11.1,1.4,1.17,1.17,0,0,1,.9,1.1,11.3,11.3,0,0,1-1,5.7,8.17,8.17,0,0,1-4.8,3.9,28,28,0,0,1-3.1,1,4.88,4.88,0,0,0-2.5,1.7c-.1.2-.2.3-.4,0a5.29,5.29,0,0,0-3.3-1.9,14.45,14.45,0,0,1-4.1-1.6,7.26,7.26,0,0,1-3.6-5.2,11.53,11.53,0,0,1-.3-3.7.85.85,0,0,1,.7-.8,50.55,50.55,0,0,1,6.7-1.2A27,27,0,0,1,339.4,51.8Z" transform="translate(0 0)"/>
    <path d="M360.6,78.2l-.3,4.5c0,.6.1,1.1.9,1.2.2,0,.3.1.4.3v.1c0,.2-.2.2-.4.2a12.19,12.19,0,0,1-2.7,0c-.2,0-.3,0-.3-.2s.1-.3.3-.4c.7-.1.9-.6.9-1.3.1-1.6.3-3.1.4-4.7,0-.6-.1-1-.8-1-.2,0-.5-.1-.4-.4s.2-.3.4-.3h2c.4,0,.5.3.6.6.7,1.5,1.4,3.1,2,4.6,0,.1.1.3.2.3s.2-.3.3-.5c.7-1.5,1.5-3.1,2.2-4.6a.56.56,0,0,1,.6-.4h2c.2,0,.4,0,.4.3a.37.37,0,0,1-.34.4h-.06c-.7,0-.9.4-.9,1.1,0,1.7.1,3.3.1,5a.9.9,0,0,0,.7,1h0c.2,0,.5,0,.5.3s-.3.3-.5.3c-1,0-1.9.1-2.9.1-.2,0-.6,0-.6-.3s.3-.3.5-.4.6-.2.6-.6c0-1.7,0-3.4-.1-5.2-.2.3-.3.7-.5,1L364,84c-.1.2-.2.4-.5.4s-.4-.3-.5-.5L361.1,79A2.3,2.3,0,0,0,360.6,78.2Z" transform="translate(0 0)"/>
    <path d="M294.8,80.3V77.9c0-.6-.2-1-.8-1.1-.2,0-.5-.1-.4-.4s.2-.3.5-.3h3c.2,0,.5,0,.5.3a.37.37,0,0,1-.34.4h-.06c-.4,0-.6.3-.6.7-.4,2-.3,2.1,1.7,2.1H300c.4,0,.5-.1.5-.5s-.1-1-.1-1.4-.1-.8-.6-.8c-.2,0-.5-.1-.4-.4s.3-.3.5-.3h2.9c.2,0,.5,0,.5.3s-.2.3-.4.3c-.6.1-.7.5-.7,1v5c0,.6.2.9.8,1a.37.37,0,0,1,.4.34v.06c0,.3-.3.3-.5.3l-3.1-.1c-.2,0-.3-.1-.3-.2a.27.27,0,0,1,.24-.3h.06c.8-.1.9-.6.8-1.3a6,6,0,0,1,.1-1.4c.1-.5-.1-.6-.6-.6H297a.53.53,0,0,0-.6.45.38.38,0,0,0,0,.15V83c0,.6.1,1,.8,1.1a.27.27,0,0,1,.3.24v.06h0v.1c-.1.3-.3.3-.5.3l-2.2-.1h-.9c-.3,0-.4,0-.4-.2a.52.52,0,0,1,.2-.4h.1c.9-.1,1-.7,1-1.4A19.22,19.22,0,0,1,294.8,80.3Z" transform="translate(0 0)"/>
    <path d="M317.8,78.8a6,6,0,0,1,5.3-6.1,11.87,11.87,0,0,1,4.2.2.85.85,0,0,1,.7.8,9.74,9.74,0,0,0,.2,1.7.56.56,0,0,1-.3.5h0c-.3,0-.3-.1-.4-.3a2.89,2.89,0,0,0-2.6-2.2,4.09,4.09,0,0,0-4.1,1.7,6.6,6.6,0,0,0-.6,5.8,4.73,4.73,0,0,0,3.7,3.1,3.35,3.35,0,0,0,3.2-1.5l.6-.9a.37.37,0,0,1,.48-.21h.12c.2.1.2.3.1.5a14.43,14.43,0,0,1-.7,1.9.9.9,0,0,1-.6.6,11.41,11.41,0,0,1-4.9.2A5.73,5.73,0,0,1,317.8,78.8Z" transform="translate(0 0)"/>
    <path d="M295.6,102.7h-2c-.2,0-.5,0-.5-.3s.2-.3.4-.4c1-.2,1.1-.3,1.1-1.4V93.3c0-1.2,0-1.2-1.2-1.5-.2,0-.4-.2-.3-.4a.43.43,0,0,1,.4-.4h0c2.3.2,4.6-.2,6.9.1a.53.53,0,0,1,.6.45.38.38,0,0,1,0,.15c0,.4.1,1,.1,1.6,0,.2,0,.5-.3.6s-.5-.2-.5-.5a1.58,1.58,0,0,0-1.65-1.5H296.8a.56.56,0,0,0-.6.5h0v3.5c0,.4.1.5.5.5h2a.82.82,0,0,0,1-.61.29.29,0,0,0,0-.09c0-.2.1-.5.4-.4s.3.3.3.5a19.27,19.27,0,0,0,.1,2.4c0,.2,0,.5-.3.6s-.4-.2-.5-.4a1.2,1.2,0,0,0-1.3-1h-1.6c-.4,0-.5.2-.5.5v3a1,1,0,0,0,.8,1.1h.2l.4.1c.2,0,.3.1.4.3v.1c0,.2-.2.3-.4.3Z" transform="translate(0 0)"/>
    <path d="M376.9,79.9c1.5.7,2,1.7,1.6,2.9a2.2,2.2,0,0,1-1.3,1.2,5.26,5.26,0,0,1-2.1.5c-1.1,0-2.2,0-3.3.1-.3,0-.6,0-.6-.3s.3-.4.5-.4a.64.64,0,0,0,.62-.66.68.68,0,0,0,0-.14V77.7a.77.77,0,0,0-.7-.8c-.2,0-.4-.1-.4-.3v-.1c0-.2.2-.3.4-.3a36.84,36.84,0,0,1,4.7.1,1.92,1.92,0,0,1,1.8,1.4,1.74,1.74,0,0,1-1,2.2C377,79.8,377,79.9,376.9,79.9Zm-3,1.9h0v1a.88.88,0,0,0,.5.8,2.23,2.23,0,0,0,1.8-.2,1.66,1.66,0,0,0,.6-1.6q-.15-1.2-1.8-1.5c-1.1-.2-1.2,0-1.2,1Zm0-3.4c0,1.4.3,1.6,1.7,1.1h.1a1.24,1.24,0,0,0,.8-1.5h0a1.49,1.49,0,0,0-1.8-1.1h0c-.8.1-.6.7-.6,1.2C373.9,78.2,373.9,78.3,373.9,78.4Z" transform="translate(0 0)"/>
    <path d="M289.2,78.5v3.9c0,.9.2,1.2,1.1,1.3l.5.1a.32.32,0,0,1,.3.3c0,.2-.2.2-.3.2-1.5,0-2.9.2-4.4.1-.2,0-.5,0-.5-.3s.2-.3.5-.3c1.1-.2,1.4-.5,1.3-1.6-.2-2.7.1-5.4,0-8,0-.4-.1-.5-.5-.5h-1c-1.3,0-1.5.2-1.9,1.4a.76.76,0,0,1-.2.4c-.1.2-.2.2-.4.2s-.3-.1-.2-.3h0a22.58,22.58,0,0,1,.2-2.6c0-.4.3-.4.6-.2a2,2,0,0,0,1.1.3h6.4a3.78,3.78,0,0,0,1-.2q.6-.3.6.3a16.21,16.21,0,0,0,.2,2.2c0,.2,0,.5-.3.6s-.4-.2-.5-.5a4.76,4.76,0,0,0-.3-.7,1.31,1.31,0,0,0-1.2-.8c-2.5,0-2-.3-2,1.9l-.1,2.8Z" transform="translate(0 0)"/>
    <path d="M336.6,94.4a28,28,0,0,1,2.9.1,3.72,3.72,0,0,1,3.2,3.3,4.27,4.27,0,0,1-2.1,4.2,6.11,6.11,0,0,1-2.4.7h-4c-.2,0-.5,0-.5-.3a.37.37,0,0,1,.34-.4h.06c.6,0,.8-.4.8-1V96a.78.78,0,0,0-.6-.9h-.1c-.2,0-.4-.1-.4-.3v-.1c0-.2.3-.3.5-.3Zm0,4h0v2.5c0,.8.3,1,1.1,1.1a3,3,0,0,0,1.3-.2c1.4-.5,2-1.6,2-3.5a3,3,0,0,0-2.79-3.2h-.61c-.7,0-.9.2-.9.9A17.52,17.52,0,0,0,336.6,98.4Z" transform="translate(0 0)"/>
    <path d="M330.3,99.7c0-1.3,0-2.7-.1-4,0-.4-.4-.6-.8-.6s-.5-.1-.5-.4.3-.3.5-.3h2.5c.2,0,.5,0,.5.3s-.2.3-.4.3c-.7.1-.8.5-.9,1.1,0,1.9,0,3.8-.1,5.7,0,.3.2.7-.2.9a.86.86,0,0,1-.9-.5l-4.3-5.3c-.1-.1-.2-.3-.4-.3a36.84,36.84,0,0,0,.1,4.7c.1.4.4.7.8.6.2,0,.5.1.4.4s-.3.3-.5.3h-2.5c-.2,0-.4,0-.5-.3a.37.37,0,0,1,.34-.4h.06a.89.89,0,0,0,.8-1v0c.1-1.6,0-3.3,0-4.9a1,1,0,0,0-.9-1c-.2,0-.5-.1-.5-.4s.3-.3.5-.3h.2a2.62,2.62,0,0,1,2.8,1.2c1.1,1.5,2.4,2.8,3.6,4.2Z" transform="translate(0 0)"/>
    <path d="M379.7,96.7a35.3,35.3,0,0,0,0,4.6.86.86,0,0,0,.8.8c.3,0,.6,0,.5.4s-.3.3-.6.3H378c-.2,0-.5,0-.6-.3s.2-.4.5-.4a.77.77,0,0,0,.7-.8h0c.1-1.7.1-3.4.1-5.1a.93.93,0,0,0-.84-1h-.16c-.2,0-.5-.1-.4-.4s.2-.3.5-.3h1.7a.76.76,0,0,1,.7.4l4.2,4.9.1.1h.1a25.39,25.39,0,0,0,0-3.9c0-.5-.4-.6-.8-.7-.2,0-.5,0-.5-.4s.3-.3.6-.3h2.4c.2,0,.5,0,.5.3a.37.37,0,0,1-.34.4h-.06c-.5,0-.7.4-.7.9-.2,2,0,4-.1,6,0,.3.1.7-.3.8s-.5-.2-.7-.4l-4.4-5.3A5.68,5.68,0,0,0,379.7,96.7Z" transform="translate(0 0)"/>
    <path d="M334.2,84.8a4.23,4.23,0,0,1-4.4-4v-.3A4.35,4.35,0,0,1,334,76h.31a4.34,4.34,0,0,1,4.5,4.1h0v.2a4.45,4.45,0,0,1-4.3,4.5Zm2.7-4.1a5.42,5.42,0,0,0-.6-2.5,2.3,2.3,0,0,0-2.4-1.5,2.46,2.46,0,0,0-2.1,1.9,4.94,4.94,0,0,0,.3,4.1,2.55,2.55,0,0,0,2.6,1.4c1.1-.1,1.6-.9,2-1.9A7.52,7.52,0,0,0,336.9,80.7Z" transform="translate(0 0)"/>
    <path d="M306.8,94.1a4.28,4.28,0,0,1,4.5,4v.07h0v.2a4.51,4.51,0,0,1-4.3,4.5h-.3a4.22,4.22,0,0,1-4.3-4.1v-.3a4.37,4.37,0,0,1,4.34-4.4Zm2.8,4.9a5.87,5.87,0,0,0-.6-2.6,2.58,2.58,0,0,0-2.5-1.5,2.34,2.34,0,0,0-2,2.1c0,.2-.1.4-.1.6a4.54,4.54,0,0,0,1.1,4,2.33,2.33,0,0,0,3.2.2,6.68,6.68,0,0,0,.6-.8A16.93,16.93,0,0,0,309.6,99Z" transform="translate(0 0)"/>
    <path d="M372,94.1a4.27,4.27,0,0,1,4.4,4.14v.06h0v.2a4.49,4.49,0,0,1-4.46,4.5h-.14a4.45,4.45,0,0,1-.3-8.9Zm-2.8,4.1a4.63,4.63,0,0,0,.9,3,2.3,2.3,0,0,0,3.2.57l.1-.07a2.52,2.52,0,0,0,.8-1,5.45,5.45,0,0,0-.4-4.8,2.4,2.4,0,0,0-3.3-.7h0a2.39,2.39,0,0,0-.8.9A3.23,3.23,0,0,0,369.2,98.2Z" transform="translate(0 0)"/>
    <path d="M308.1,76.2h2.6c.5,0,.7.2.7.7a3.37,3.37,0,0,0,.1,1c0,.3,0,.4-.2.5a.36.36,0,0,1-.49-.18v0h0c-.4-1.3-1.5-1.2-2.6-1.2-.3,0-.6.1-.6.4h0v.9c0,1.5.4,1.8,1.9,1.5.3-.1.5-.3.5-.5s.1-.4.4-.3.3.2.3.5v1.9c0,.2,0,.4-.3.4s-.3-.1-.4-.3a2.09,2.09,0,0,0-2.1-.6c-.1.1-.1.2-.2.3a7.39,7.39,0,0,0,0,2.1.57.57,0,0,0,.5.62.68.68,0,0,0,.2,0h1.2a1.51,1.51,0,0,0,1.6-1.1c.1-.3.2-.7.6-.5s.2.5.2.8c-.3,1.5-.3,1.4-1.8,1.5s-3.2,0-4.8,0H305a.27.27,0,0,1-.3-.24V84.3h0a.27.27,0,0,1,.24-.3H305c.8,0,.9-.6,1-1.3.1-1.6,0-3.2,0-4.8,0-.5-.1-.9-.7-.9-.2,0-.5-.1-.4-.4s.3-.3.5-.3Z" transform="translate(0 0)"/>
    <path d="M387,79.6V77.9a.82.82,0,0,0-.61-1l-.09,0h-.1c-.2,0-.5,0-.5-.4s.3-.3.6-.3h2.3c.2,0,.6,0,.6.3s-.3.3-.5.4a1,1,0,0,0-.7.9v2.9a5.53,5.53,0,0,1-.3,1.8,3.11,3.11,0,0,1-3.6,2.2,3,3,0,0,1-3-2.6,25.41,25.41,0,0,1-.1-3.9c0-.7,0-1.2-.9-1.3a.27.27,0,0,1-.3-.24V76.5c0-.2.2-.3.4-.3h3.2c.2,0,.4,0,.4.3s-.1.4-.3.4c-.7.1-.8.5-.8,1.1,0,1.3,0,2.5.1,3.8a2.15,2.15,0,0,0,2,2,1.94,1.94,0,0,0,2.1-1.75v0a4.83,4.83,0,0,0,.1-1.2V79.6Z" transform="translate(0 0)"/>
    <path d="M348.9,79.8V77.9c0-.6-.2-1-.8-1.1a.37.37,0,0,1-.4-.34V76.4c0-.3.2-.3.4-.3h3c.2,0,.4,0,.4.3s-.1.4-.3.4h-.1c-.7.1-.8.5-.8,1.2a17.27,17.27,0,0,0,.2,4,1.94,1.94,0,0,0,2.15,1.71h.05a2.14,2.14,0,0,0,2-1.9,9.65,9.65,0,0,0,.1-1.7V78c0-.7-.2-1-.9-1.1-.2,0-.5-.1-.5-.4s.2-.3.5-.3h2.5c.2,0,.5,0,.5.3a.37.37,0,0,1-.34.4h-.06c-.6.1-.7.5-.7,1,0,1.2,0,2.5-.1,3.7a3.66,3.66,0,0,1-3.9,3.2,4.37,4.37,0,0,1-1.6-.6,3.18,3.18,0,0,1-1.3-2.6V79.8Z" transform="translate(0 0)"/>
    <path d="M319.5,97.8V96.1a.9.9,0,0,0-.77-1h-.13c-.2,0-.5-.1-.5-.4s.3-.3.6-.3h2.4c.2,0,.5,0,.5.3a.37.37,0,0,1-.34.4h-.06c-.6.1-.7.5-.8,1a28.09,28.09,0,0,1-.2,4.1,3.26,3.26,0,0,1-3.3,2.8c-2.2,0-3.4-1.2-3.5-3.6V96.3c0-.6-.1-1-.8-1.2-.2,0-.3-.1-.4-.3v-.1c0-.2.2-.3.4-.3h3.2c.2,0,.4,0,.4.3s-.2.3-.3.3c-.7.1-.9.6-.9,1.2,0,1.3,0,2.6.1,3.9a2,2,0,0,0,1.7,1.8,2.09,2.09,0,0,0,2.4-1.3A6.65,6.65,0,0,0,319.5,97.8Z" transform="translate(0 0)"/>
    <path d="M350.6,102.7h-1.4c-.2,0-.4,0-.5-.3s.1-.3.3-.3c.4-.1.5-.4.3-.8h0c-.5-1.2-.2-1.2-1.6-1.2h-.6c-1,0-1.1,0-1.3,1-.1.5-.1.8.5.9a.27.27,0,0,1,.3.24v.16c-.1.2-.2.2-.4.2h-2.4c-.2,0-.4,0-.4-.3s.1-.3.3-.4a2,2,0,0,0,1.2-1.3c.8-2,1.7-4,2.4-6a.9.9,0,0,1,.6-.6c.4,0,.5.4.6.7.8,2,1.5,4.1,2.4,6.1.2.5.5,1.1,1.2,1.2a.27.27,0,0,1,.3.24v.06h0c0,.2-.2.3-.4.3h-1.5Zm-3.2-6.3c-.3.9-.5,1.6-.8,2.3,0,.1-.1.3.1.4a3.79,3.79,0,0,0,1.5,0c.2,0,.2-.2.1-.4a9.09,9.09,0,0,0-.9-2.3Z" transform="translate(0 0)"/>
    <path d="M392.8,84.7h-.5a2,2,0,0,1-2.19-1.79,1.48,1.48,0,0,1,0-.21v-.5c0-.2,0-.4.3-.5s.4.1.5.3a6,6,0,0,0,.4.8,2.79,2.79,0,0,0,1.3,1.1,1.56,1.56,0,0,0,1.8-.7,1.39,1.39,0,0,0-.7-1.8,5.74,5.74,0,0,0-1.2-.5,8,8,0,0,1-1.2-.7,2.35,2.35,0,0,1-.3-3.3,3.47,3.47,0,0,1,1-.7,4.78,4.78,0,0,1,2.9,0,.83.83,0,0,1,.5.5,6.66,6.66,0,0,1,.2,1.4c0,.2-.1.4-.2.4h0a.36.36,0,0,1-.49-.18v0h0c-.1-.3-.3-.5-.4-.8a1.45,1.45,0,0,0-1.3-.8A1.19,1.19,0,0,0,392,77.85c0,.05,0,.1,0,.15a1.23,1.23,0,0,0,.5,1,9.08,9.08,0,0,0,1.7.8c1.5.7,2.1,1.7,1.9,2.8a2.71,2.71,0,0,1-2.9,2.1Z" transform="translate(0 0)"/>
    <path d="M357.6,98.4v2.5c0,.6.2,1.1.9,1.1.2,0,.5,0,.5.3s-.3.3-.5.3h-3.1c-.2,0-.5,0-.6-.3s.2-.4.5-.4a.82.82,0,0,0,.8-.84V101h0V95.5a.53.53,0,0,0-.45-.6.38.38,0,0,0-.15,0c-1,0-1.4.2-1.7,1.2-.1.2-.1.5-.5.4s-.2-.3-.2-.5a10.87,10.87,0,0,1,.1-1.8c0-.3.2-.4.5-.3a5,5,0,0,0,2.4.3h3.2a1.5,1.5,0,0,0,.9-.2c.4-.2.6-.1.6.4s.1,1,.1,1.6c0,.2,0,.5-.3.6s-.4-.2-.5-.5c-.4-1-.7-1.2-1.7-1.2a.53.53,0,0,0-.6.45.38.38,0,0,0,0,.15A14.84,14.84,0,0,0,357.6,98.4Z" transform="translate(0 0)"/>
    <path d="M342,76.2h1.5c.2,0,.5,0,.5.3a.37.37,0,0,1-.34.4h-.06c-.6,0-.8.4-.8,1a41.7,41.7,0,0,0,0,5c.1.6.2.9.8.9,1.6.1,2.4-.1,2.7-1.3.1-.2.2-.5.5-.4s.2.4.2.6v.1c-.5,2-.1,1.8-2.2,1.8a29.44,29.44,0,0,0-4.2,0h-.4a.27.27,0,0,1-.3-.24V84.3h0a.27.27,0,0,1,.24-.3h.06c.9,0,1-.7,1-1.4V78.1c0-.6-.1-1.2-.9-1.2a.32.32,0,0,1-.3-.3h0c0-.3.2-.3.4-.3l1.6-.1Z" transform="translate(0 0)"/>
    <path d="M364.2,102.7h-1.6c-.2,0-.4,0-.4-.3s.1-.3.3-.3c.7-.1.8-.5.8-1.2V96c0-.6-.1-1-.8-1-.2,0-.3-.1-.4-.3v-.1c0-.3.2-.3.4-.3h3.1c.2,0,.4,0,.5.3a.37.37,0,0,1-.34.4h-.06c-.5,0-.7.4-.8.9a45.1,45.1,0,0,0,0,5.2c0,.5.2.9.8.9.2,0,.5.1.4.4s-.3.3-.5.3Z" transform="translate(0 0)"/>
    <path d="M336.5,45.9a18.65,18.65,0,0,1,2,1c1.1.8,1.1.8.1,1.7a6.25,6.25,0,0,0-1.4,1.9c-.3.6-.4.6-.8.1a14.1,14.1,0,0,0-2.1-2.2c-.3-.3-.4-.5-.1-.8.6-.6,1.2-1.1,1.8-1.6A.74.74,0,0,1,336.5,45.9Z" transform="translate(0 0)"/>
    <path d="M343.2,45.9c.1.1.3.1.4.2a10,10,0,0,1,1.8,1.7c.2.1.2.4.1.6h0a.09.09,0,0,1-.1.1h0a13.07,13.07,0,0,0-2.2,2.5c-.2.3-.4.2-.6-.1a15.06,15.06,0,0,0-2.1-2.8c-.2-.2-.2-.3,0-.5a7.63,7.63,0,0,1,2.7-1.7Z" transform="translate(0 0)"/>
    <path d="M349.3,46.7a.76.76,0,0,1,.4.2,7.59,7.59,0,0,1,1.5,1.6.49.49,0,0,1,0,.68l0,0-.1.1a13.63,13.63,0,0,0-2.4,2.4c-.2.3-.4.3-.5,0a21,21,0,0,0-1.5-3,.33.33,0,0,1,0-.47l0,0A7.53,7.53,0,0,1,349.3,46.7Z" transform="translate(0 0)"/>
    <path d="M333,48.3a.76.76,0,0,0-.2.4,12.64,12.64,0,0,0-1.3,2.6c-.2.5-.4.6-.7.1a11.46,11.46,0,0,0-2.2-2.2.64.64,0,0,1-.3-.8h0c0-.1.1-.1.1-.2,1.2-1.8,2-2,3.7-.8C332.5,47.8,332.9,47.9,333,48.3Z" transform="translate(0 0)"/>
    <path d="M334.7,44.8a1.52,1.52,0,0,1,.9-.4,4.6,4.6,0,0,0,3.4-3.2c.1-.3.2-.4.6-.3a1.53,1.53,0,0,1,1.1,1.1,2.28,2.28,0,0,0,.7,1c.2.2.3.4-.1.5a16.08,16.08,0,0,0-4.8,1.7C335.9,45.5,335.4,44.9,334.7,44.8Z" transform="translate(0 0)"/>
    <path d="M339.8,44.2a8.52,8.52,0,0,1,2.6,1.1c.3.2.1.4-.1.5a18.56,18.56,0,0,0-2.3,1.4.45.45,0,0,1-.5,0,18.56,18.56,0,0,0-2.3-1.4c-.2-.1-.4-.3-.1-.5A10.57,10.57,0,0,1,339.8,44.2Z" transform="translate(0 0)"/>
    <path d="M341.8,51.2a22.85,22.85,0,0,0-3.7,0c-.2,0-.5.1-.6-.2s.1-.4.2-.6a13.29,13.29,0,0,1,1.9-2.2c.2-.2.3-.2.6,0a11.29,11.29,0,0,1,1.9,2.4.43.43,0,0,1,.1.5C342.1,51.2,341.9,51.3,341.8,51.2Z" transform="translate(0 0)"/>
    <path d="M332.2,51.9c-.4,0-.5-.2-.4-.5a21,21,0,0,1,1.4-2.6c.1-.2.2-.2.4-.2h0a.09.09,0,0,1,.1.1h0a9,9,0,0,1,2.1,2.2c.2.3.1.5-.2.5A21.78,21.78,0,0,0,332.2,51.9Z" transform="translate(0 0)"/>
    <path d="M347.3,51.9c-1.1-.2-2.3-.4-3.5-.5-.4,0-.4-.2-.2-.5.6-.7,1.3-1.4,2-2.1.3-.3.5-.3.7,0,.5.8.9,1.7,1.3,2.5C347.8,51.7,347.6,51.9,347.3,51.9Z" transform="translate(0 0)"/>
    <path d="M345.9,44.9a6.58,6.58,0,0,1,2.7,1.2c.2.2.2.3,0,.4-.8.4-1.5.8-2.2,1.2-.2.1-.4.1-.5-.1l-1.7-1.7c-.2-.2-.2-.4.1-.5Z" transform="translate(0 0)"/>
    <path d="M333.7,44.9c.5.2,1.1.3,1.6.5s.3.3,0,.5a13.53,13.53,0,0,0-1.7,1.6.35.35,0,0,1-.48.11h0L331,46.4c-.3-.1-.3-.3,0-.5A10.83,10.83,0,0,1,333.7,44.9Z" transform="translate(0 0)"/>
    <path d="M351.9,50.8a2.08,2.08,0,0,1-.1.7c-.3,1.3-.5,1.4-1.7,1.1H350c-1.3-.4-1.3-.4-.4-1.4a9.27,9.27,0,0,1,1.4-1.4c.5-.4.6-.3.7.2v.3A.72.72,0,0,1,351.9,50.8Z" transform="translate(0 0)"/>
    <path d="M328.2,49.5c.1.1.2.1.3.2a18.89,18.89,0,0,1,1.9,2c.2.3.2.5-.2.6l-1.2.3c-.6.3-.9,0-1.1-.5a3.4,3.4,0,0,1-.2-2.2C327.9,49.7,327.9,49.5,328.2,49.5Z" transform="translate(0 0)"/>
    <path d="M340.9,44.1a2.17,2.17,0,0,1,2.2,0,3.5,3.5,0,0,0,1,.3c.2,0,.5,0,.5.2s-.3.2-.4.3a1.5,1.5,0,0,1-1.8-.1A10.23,10.23,0,0,0,340.9,44.1Z" transform="translate(0 0)"/>
    <rect class="cls-4" x="21.7" y="49.8" width="55.3" height="52.6"/>
    <g id="Layer_2" data-name="Layer 2">
        <g id="Layer_1-2" data-name="Layer 1-2">
            <path d="M30.1,63.1a4.37,4.37,0,0,1,.3-1.6,4.15,4.15,0,0,1,.9-1.4,4.75,4.75,0,0,1,3.4-1.4,5.91,5.91,0,0,1,2.3.5,3.16,3.16,0,0,1,1.4,1.4L36.5,62a1.23,1.23,0,0,0-.8-.8c-.2-.1-.3-.1-.5-.2h-.5a2,2,0,0,0-1.6.7,2.44,2.44,0,0,0-.4.7,2.18,2.18,0,0,0-.1.8,2.74,2.74,0,0,0,.1.9,1.64,1.64,0,0,0,.4.7,1.84,1.84,0,0,0,.7.5,3.09,3.09,0,0,0,.9.2.74.74,0,0,0,.5-.1.72.72,0,0,0,.5-.2,1.31,1.31,0,0,0,.4-.3,2.29,2.29,0,0,0,.3-.5l2,1.2a1.56,1.56,0,0,1-.6.8,2.11,2.11,0,0,1-1,.6,4.48,4.48,0,0,1-2.3.5,3.76,3.76,0,0,1-1.8-.4,6.54,6.54,0,0,1-1.5-1,4.15,4.15,0,0,1-.9-1.4A8.65,8.65,0,0,1,30.1,63.1Z" transform="translate(0 0)"/>
            <path d="M41.6,58.8h2.3l3.2,8.6H44.6L44,65.8H41.6L41,67.4H38.4Zm2,5.4-.8-2.7L42,64.2Z" transform="translate(0 0)"/>
            <path d="M50.2,63.2v4.2H47.7V58.8h2l3.7,4.4V58.8h2.5v8.6h-2Z" transform="translate(0 0)"/>
            <path d="M59.2,59a1.29,1.29,0,0,1,.4,1,1.23,1.23,0,0,1-.1.6,6,6,0,0,1-.3.8l-.8,1.8H56.9l.6-2a2.62,2.62,0,0,1-.6-.5,1.94,1.94,0,0,1-.2-.7,1.29,1.29,0,0,1,.4-1,1.49,1.49,0,0,1,1.1-.4A2,2,0,0,1,59.2,59Z" transform="translate(0 0)"/>
            <path d="M67.9,60.9H65.3v6.5H62.8V60.9H60.2V58.8H68Z" transform="translate(0 0)"/>
            <path d="M36.1,73.8c-.3-.1-.5-.3-.8-.4s-.5-.2-.8-.3a2.2,2.2,0,0,0-.8-.1.74.74,0,0,0-.5.1c-.1.1-.2.2-.2.3a.37.37,0,0,0,.1.3c.1.1.2.2.3.2a1.06,1.06,0,0,1,.5.2,5.6,5.6,0,0,0,.7.2,3.54,3.54,0,0,1,1.1.4,4.4,4.4,0,0,1,.9.5,4.44,4.44,0,0,1,.6.7,3.78,3.78,0,0,1,.2,1,2.79,2.79,0,0,1-.3,1.3,3,3,0,0,1-.8.8,3.77,3.77,0,0,1-1.1.5,5.15,5.15,0,0,1-1.3.1,3.37,3.37,0,0,1-1-.1,3.12,3.12,0,0,1-1-.2l-1-.3c-.3-.1-.6-.3-.9-.4l1.1-2.1c.3.2.6.3.9.5l.9.3a3.7,3.7,0,0,0,1.1.1,1.23,1.23,0,0,0,.6-.1c.1-.1.2-.2.2-.3s-.1-.2-.2-.3a.76.76,0,0,0-.4-.2c-.2-.1-.4-.1-.6-.2s-.5-.1-.8-.2a3.09,3.09,0,0,1-1-.4,1.84,1.84,0,0,1-.7-.5,2.17,2.17,0,0,1-.4-.6,2.41,2.41,0,0,1-.1-.8,3.09,3.09,0,0,1,.3-1.3,1.8,1.8,0,0,1,.8-.9,10.59,10.59,0,0,1,1.1-.6,5.18,5.18,0,0,1,1.3-.2,3.37,3.37,0,0,1,1,.1c.3.1.6.1.9.2a6,6,0,0,1,.8.3,4.76,4.76,0,0,1,.7.3Z" transform="translate(0 0)"/>
            <path d="M45.5,73H42.9v6.5H40.4V73H37.8V71h7.8v2Z" transform="translate(0 0)"/>
            <path d="M50.2,79.7a4,4,0,0,1-1.9-.4,6.54,6.54,0,0,1-1.5-1,4.15,4.15,0,0,1-.9-1.4,4.37,4.37,0,0,1-.3-1.6,4.17,4.17,0,0,1,.3-1.6,4.49,4.49,0,0,1,1-1.4,5.62,5.62,0,0,1,1.5-1,5.92,5.92,0,0,1,1.9-.4,4,4,0,0,1,1.9.4,6.54,6.54,0,0,1,1.5,1,4.15,4.15,0,0,1,.9,1.4,4.37,4.37,0,0,1,.3,1.6,4.17,4.17,0,0,1-.3,1.6,4.49,4.49,0,0,1-1,1.4,5.62,5.62,0,0,1-1.5,1A7.23,7.23,0,0,1,50.2,79.7Zm-2.1-4.4a2,2,0,0,0,.1.8,1.64,1.64,0,0,0,.4.7,2.62,2.62,0,0,0,.6.5,2.1,2.1,0,0,0,1.8,0,1.84,1.84,0,0,0,.7-.5,2,2,0,0,0,.5-1.5,2,2,0,0,0-.1-.8,1.64,1.64,0,0,0-.4-.7,1.84,1.84,0,0,0-.7-.5,2.1,2.1,0,0,0-1.8,0,1,1,0,0,0-.6.5,2.44,2.44,0,0,0-.4.7A2,2,0,0,0,48.1,75.3Z" transform="translate(0 0)"/>
            <path d="M55.8,79.6V71h3.9a2.63,2.63,0,0,1,1.2.3,3.47,3.47,0,0,1,1,.7,2.11,2.11,0,0,1,.6,1,2,2,0,0,1,.2,1.1,3.25,3.25,0,0,1-.8,2.1,3.47,3.47,0,0,1-1,.7,1.73,1.73,0,0,1-1.2.2H58.2v2.6H55.8Zm2.5-4.7h1.3a.52.52,0,0,0,.4-.2,1,1,0,0,0,.2-.7,1.42,1.42,0,0,0-.2-.7.72.72,0,0,0-.5-.2H58.2Z" transform="translate(0 0)"/>
            <path d="M30.1,87.3a4.37,4.37,0,0,1,.3-1.6,4.15,4.15,0,0,1,.9-1.4,4.75,4.75,0,0,1,3.4-1.4,5.91,5.91,0,0,1,2.3.5,3.16,3.16,0,0,1,1.4,1.4l-1.9,1.3a1.23,1.23,0,0,0-.8-.8c-.2-.1-.3-.1-.5-.2h-.5a2,2,0,0,0-1.6.7,2.44,2.44,0,0,0-.4.7,2.18,2.18,0,0,0-.1.8,2.74,2.74,0,0,0,.1.9,1.64,1.64,0,0,0,.4.7,1.84,1.84,0,0,0,.7.5,3.09,3.09,0,0,0,.9.2.74.74,0,0,0,.5-.1.72.72,0,0,0,.5-.2,1.31,1.31,0,0,0,.4-.3,2.29,2.29,0,0,0,.3-.5l2,1.2a1.56,1.56,0,0,1-.6.8,2.11,2.11,0,0,1-1,.6,4.48,4.48,0,0,1-2.3.5,3.76,3.76,0,0,1-1.8-.4,6.54,6.54,0,0,1-1.5-1,4.15,4.15,0,0,1-.9-1.4A5.83,5.83,0,0,1,30.1,87.3Z" transform="translate(0 0)"/>
            <path d="M47.1,89.5a1.86,1.86,0,0,1-1,1.7,4,4,0,0,1-1,.4,5.15,5.15,0,0,1-1.3.1H39.3V83.1h5.3a3.09,3.09,0,0,1,.9.2,1.84,1.84,0,0,1,.7.5,1.64,1.64,0,0,1,.4.7,2.18,2.18,0,0,1,.1.8,2.63,2.63,0,0,1-.3,1.2,1.57,1.57,0,0,1-1,.8,2,2,0,0,1,1.2.8A1.57,1.57,0,0,1,47.1,89.5Zm-5.2-4.4v1.3h1.7a.87.87,0,0,0,.5-.1c.2-.1.2-.3.2-.5s0-.4-.2-.5a.76.76,0,0,0-.4-.2ZM44.6,89a.67.67,0,0,0-.66-.7H41.8v1.4h2a.72.72,0,0,0,.5-.2A.56.56,0,0,0,44.6,89Z" transform="translate(0 0)"/>
            <path class="cls-5" d="M52.1,89.7a1.42,1.42,0,0,0,.7-.2,1.21,1.21,0,0,0,.5-.5,4.76,4.76,0,0,0,.3-.7,2.18,2.18,0,0,0,.1-.8V83.1h2.5v4.4a9.74,9.74,0,0,1-.2,1.7,2.86,2.86,0,0,1-.8,1.4,3.89,3.89,0,0,1-1.3.9,5.53,5.53,0,0,1-1.8.3,6.14,6.14,0,0,1-1.9-.3,3.89,3.89,0,0,1-1.3-.9,3.69,3.69,0,0,1-.7-1.4,4.57,4.57,0,0,1-.2-1.6V83.2h2.5v4.4a2,2,0,0,0,.1.8c.1.2.1.5.3.7a1.21,1.21,0,0,0,.5.5C51.6,89.6,51.9,89.7,52.1,89.7Z" transform="translate(0 0)"/>
            <path class="cls-5" d="M63.1,85.9c-.3-.1-.5-.3-.8-.4s-.5-.2-.8-.3a2.41,2.41,0,0,0-.8-.1.74.74,0,0,0-.5.1c-.2.1-.2.2-.2.4a.37.37,0,0,0,.1.3c.1.1.2.2.3.2a1.06,1.06,0,0,1,.5.2,5.6,5.6,0,0,0,.7.2,3.54,3.54,0,0,1,1.1.4,2.76,2.76,0,0,1,1.5,1.2,3.78,3.78,0,0,1,.2,1,2.79,2.79,0,0,1-.3,1.3,3,3,0,0,1-.8.8,3.77,3.77,0,0,1-1.1.5,5.15,5.15,0,0,1-1.3.1,3.37,3.37,0,0,1-1-.1,3.12,3.12,0,0,1-1-.2l-1-.3c-.3-.1-.6-.3-.9-.4l1.1-2.1c.3.2.6.3.9.5l.9.3a3.7,3.7,0,0,0,1.1.1,1.23,1.23,0,0,0,.6-.1c.1-.1.2-.2.2-.3s-.1-.2-.2-.3a.76.76,0,0,0-.4-.2c-.2-.1-.4-.1-.6-.2s-.5-.1-.8-.2-.67-.25-1-.4a1.84,1.84,0,0,1-.7-.5,2.17,2.17,0,0,1-.4-.6,2.41,2.41,0,0,1-.1-.8,3.09,3.09,0,0,1,.3-1.3,2.14,2.14,0,0,1,.7-.9,10.59,10.59,0,0,1,1.1-.6A5.68,5.68,0,0,1,61,83a3.37,3.37,0,0,1,1,.1c.3.1.6.1.9.2a6,6,0,0,1,.8.3,4.76,4.76,0,0,1,.7.3Z" transform="translate(0 0)"/>
            <path class="cls-5" d="M65.4,91.4a1.46,1.46,0,0,1,0-2,1.66,1.66,0,0,1,2.1,0,1.52,1.52,0,0,1,0,2,1.45,1.45,0,0,1-2,0Z" transform="translate(0 0)"/>
            <polygon points="52.1 80.2 52.5 81.2 53.5 81.2 52.7 81.8 53 82.8 52.1 82.2 51.3 82.8 51.6 81.8 50.8 81.2 51.8 81.2 52.1 80.2"/>
            <path class="cls-5" d="M75.7,50.7v50.2H22.4V50.7H75.7m3.6-3.5H18.7v57.2H79.3Z" transform="translate(0 0)"/>
        </g>
    </g>
    <g id="layer1">
        <g id="g8987">
            <path id="path7787" class="cls-6" d="M146.17,90.2a11,11,0,1,1-5.06-20.82,10.81,10.81,0,0,1,2.49.29V67.25a14,14,0,0,0-2.44-.22,13.42,13.42,0,1,0,5,25.86v2.72h2.43V88.5a11.16,11.16,0,0,1-2.43,1.7m2.43,9.53a22.19,22.19,0,0,1-2.43.78A20.74,20.74,0,1,1,148.45,61V58.42a22.92,22.92,0,0,0-7.35-1.19,23.18,23.18,0,1,0,0,46.35,22.9,22.9,0,0,0,5.07-.56,21.8,21.8,0,0,0,2.43-.68V99.73ZM122.79,80.4a18.31,18.31,0,0,0,16,18.15V96.09a15.88,15.88,0,0,1,2.38-31.57,15.44,15.44,0,0,1,2.47.2V62.26a18.86,18.86,0,0,0-2.5-.16,18.3,18.3,0,0,0-18.31,18.3m18.37-6.16a6.14,6.14,0,0,1,4.89,2.43h2.43v-13a18.42,18.42,0,0,0-2.43-.86V73.44A8.56,8.56,0,1,0,141.16,89c.31,0,.62,0,.92-.06V86.45a6.86,6.86,0,0,1-.92.07,6.14,6.14,0,1,1,0-12.28" transform="translate(0 0)"/>
            <path id="path7793" class="cls-7" d="M161.75,92.74a2.42,2.42,0,0,1-2.27-2.69,2.3,2.3,0,1,1,4.53,0,2.42,2.42,0,0,1-2.26,2.69m0-6.16a3.28,3.28,0,0,0-3.38,3.47,3.38,3.38,0,1,0,6.75,0,3.28,3.28,0,0,0-3.37-3.47" transform="translate(0 0)"/>
            <path id="path7797" class="cls-7" d="M174.32,68h-1v9.85h1Z" transform="translate(0 0)"/>
            <path id="path7803" class="cls-7" d="M178.16,78a2.35,2.35,0,0,0,2.14-1.18l.25,0v1h1V71.26h-1v3c0,1.87-.8,3-2.21,3h0c-1.37-.09-1.56-1.29-1.56-2.57V71.26h-1v3.95c0,1.88.82,2.83,2.45,2.83" transform="translate(0 0)"/>
            <path id="path7809" class="cls-7" d="M190.12,71.1a2.32,2.32,0,0,0-2,1.26l-.12.25-.1-.26A1.92,1.92,0,0,0,186,71.1,2.19,2.19,0,0,0,184,72.2l-.24.35V71.26h-.95v6.62h1V74.54c0-1.28.5-2.66,1.92-2.66.86,0,1.34.72,1.34,2v4h1V74.54c0-1.28.51-2.66,1.92-2.66.87,0,1.34.72,1.34,2v4h1V73.6c0-1.66-.76-2.5-2.26-2.5" transform="translate(0 0)"/>
            <path id="path7815" class="cls-7" d="M194.52,74.58c0-1.3.67-2.7,2.15-2.7a1.75,1.75,0,0,1,1.3.53,3,3,0,0,1,.7,2.13,3.23,3.23,0,0,1-.77,2.19,1.69,1.69,0,0,1-1.25.53c-1.4,0-2.13-1.35-2.13-2.68m5.26-.13c0-1.55-.75-3.35-2.85-3.35a2.37,2.37,0,0,0-2.17,1l-.24.36V68h-1v9.85h1V77l0-.39.22.33A2.64,2.64,0,0,0,197,78c2.09,0,2.83-1.93,2.83-3.59" transform="translate(0 0)"/>
            <path id="path7821" class="cls-7" d="M203.08,77.26h0c-1.38-.09-1.57-1.29-1.57-2.57V71.26h-1v3.95c0,1.88.83,2.83,2.46,2.83a2.34,2.34,0,0,0,2.13-1.18l.26,0v1h1V71.26h-1v3c0,1.87-.8,3-2.21,3" transform="translate(0 0)"/>
            <path id="path7827" class="cls-7" d="M211.26,76c0-1.14-.85-1.52-1.67-1.9s-1.3-.59-1.3-1.29.51-1,1.32-1a3.78,3.78,0,0,1,1.23.3c0-.22.07-.7.08-.84a4.71,4.71,0,0,0-1.44-.24c-1.44,0-2.3.74-2.3,2,0,1,.84,1.4,1.65,1.8s1.32.63,1.32,1.27c0,.81-.76,1.1-1.41,1.1a3.61,3.61,0,0,1-1.47-.42c0,.24,0,.75-.05.87A4,4,0,0,0,209,78a2,2,0,0,0,2.28-2" transform="translate(0 0)"/>
            <path id="path7833" class="cls-7" d="M163.2,78a5.7,5.7,0,0,0,2-.3c0-.13-.05-.81-.07-1a5.09,5.09,0,0,1-1.93.4,3.79,3.79,0,0,1,.06-7.58,3.9,3.9,0,0,1,1.84.47c0-.23.07-.91.08-1a4.93,4.93,0,0,0-2-.37,4.56,4.56,0,0,0-4.85,4.69A4.5,4.5,0,0,0,163.2,78" transform="translate(0 0)"/>
            <path id="path7839" class="cls-7" d="M168.85,77.26a2.41,2.41,0,0,1-2.27-2.69,2.3,2.3,0,1,1,4.53,0,2.41,2.41,0,0,1-2.26,2.69m0-6.16a3.27,3.27,0,0,0-3.38,3.47,3.38,3.38,0,1,0,6.75,0,3.27,3.27,0,0,0-3.37-3.47" transform="translate(0 0)"/>
            <path id="path7845" class="cls-7" d="M196.7,92.8a2.56,2.56,0,0,1-2.6-2.52,2.87,2.87,0,0,1,1.66-2.38l3.18,3.79a2.65,2.65,0,0,1-2.24,1.11m3.35-1.23a3.61,3.61,0,0,0,.29-1.4v-1.5h-.91v1.5a2.32,2.32,0,0,1-.08.58l-3.42-4.06a1.94,1.94,0,0,1-.54-1.18,1.26,1.26,0,0,1,1.32-1.25,1.18,1.18,0,0,1,1.22,1.26v.2h.92v-.2a2,2,0,0,0-2.14-2.13,2.14,2.14,0,0,0-2.25,2.12,2.75,2.75,0,0,0,.73,1.7,3.65,3.65,0,0,0-2,3.06,3.49,3.49,0,0,0,3.54,3.42,3.64,3.64,0,0,0,2.85-1.29l.95,1.13h1.2l-1.65-2" transform="translate(0 0)"/>
            <path id="path7851" class="cls-7" d="M166.38,86v.75h-1.61v.78h1.61v5.84h1V87.52h1.82v-.78h-1.82v-.86c0-.88.1-1.74,1.34-1.74a3,3,0,0,1,.5,0c0-.18,0-.63,0-.78a5.53,5.53,0,0,0-.73-.06c-1.81,0-2.18,1.05-2.18,2.64" transform="translate(0 0)"/>
            <path id="path7857" class="cls-7" d="M185.7,87.53v-.88a3.5,3.5,0,0,0-.72-.07,2,2,0,0,0-1.68,1.15l-.25,0v-.94h-1v6.62h1v-3c0-1.77.78-2.92,2-2.92a2.15,2.15,0,0,1,.59.09" transform="translate(0 0)"/>
            <path id="path7863" class="cls-7" d="M186.36,87.52v4.13c0,1.24.67,1.87,2,1.87a3.48,3.48,0,0,0,1-.16v-.8a1.65,1.65,0,0,1-.74.18,1.2,1.2,0,0,1-1.18-1.35V87.52h1.81v-.78h-1.81V84.79l-1,.33v1.62" transform="translate(0 0)"/>
            <path id="path7869" class="cls-7" d="M211.71,88.76c0,2.42-1.25,3.65-3.71,3.65h-1.53V85.16h1.69a3.38,3.38,0,0,1,3.55,3.6m-6.35-4.55v9.15H208c3.15,0,4.89-1.65,4.89-4.66,0-2.64-2-4.49-4.89-4.49h-2.65" transform="translate(0 0)"/>
            <path id="path7875" class="cls-7" d="M218.43,89.39v.12h-3.8v-.13a2,2,0,0,1,2-2,1.85,1.85,0,0,1,1.82,2m-4.9.54c0,2.32,1.23,3.59,3.44,3.59a4.73,4.73,0,0,0,1.94-.37l.11,0v-1a4.22,4.22,0,0,1-2,.6,2.37,2.37,0,0,1-2.38-2.41v-.11h4.9c0-2.45-1-3.64-2.91-3.64a3.06,3.06,0,0,0-3.1,3.35" transform="translate(0 0)"/>
            <path id="path7881" class="cls-7" d="M222.54,89.6c-.68-.3-1.31-.59-1.31-1.28s.52-1,1.33-1a3.84,3.84,0,0,1,1.23.3c0-.21.06-.71.08-.84a4.83,4.83,0,0,0-1.45-.24c-1.44,0-2.3.74-2.3,2,0,1,.84,1.4,1.66,1.8.67.32,1.31.63,1.31,1.27,0,.81-.76,1.1-1.41,1.1a3.54,3.54,0,0,1-1.46-.42c0,.24-.05.75-.06.87a4,4,0,0,0,1.76.33,2,2,0,0,0,2.28-2c0-1.14-.85-1.52-1.66-1.9" transform="translate(0 0)"/>
            <path id="path7885" class="cls-7" d="M226.19,86.74h-1v6.62h1Z" transform="translate(0 0)"/>
            <path id="path7889" class="cls-7" d="M226.27,83.78h-1.2V85h1.2Z" transform="translate(0 0)"/>
            <path id="path7895" class="cls-7" d="M232.25,90.13a2.26,2.26,0,0,1-2.12,2.45c-1.33,0-2-1.28-2-2.54s.71-2.68,2-2.68,2.12,1.09,2.12,2.77m-2.31-3.55c-2,0-2.95,1.83-2.95,3.52s.87,3.26,2.82,3.26a2.75,2.75,0,0,0,2.2-1l.24-.28v1A2.19,2.19,0,0,1,230,95.56a5.22,5.22,0,0,1-2.38-.57c0,.22-.09.78-.1.92a6.69,6.69,0,0,0,2.33.44c2.3,0,3.42-1,3.42-3.17V86.74h-.93v.9l-.26.06a2.12,2.12,0,0,0-2.15-1.12" transform="translate(0 0)"/>
            <path id="path7901" class="cls-7" d="M237.7,86.58a2.35,2.35,0,0,0-2.14,1.18l-.25-.05v-1h-1v6.62h1v-3c0-1.87.8-3,2.21-3s1.56,1.29,1.56,2.57v3.43h1v-4c0-1.87-.83-2.82-2.45-2.82" transform="translate(0 0)"/>
            <path id="path7907" class="cls-7" d="M177.6,84.22h-1.26c-.06.14-3.77,8.84-3.91,9.15h1.16c0-.14.95-2.37.95-2.37h4.76l1,2.37h1.21l-3.87-9.15M179,90.14h-4.09l1.93-4.82.11-.27L179,90.14" transform="translate(0 0)"/>
            <path id="path7913" class="cls-7" d="M219.83,78a5.94,5.94,0,0,0,2-.3c0-.14,0-.81-.07-1a4.9,4.9,0,0,1-1.93.4,3.79,3.79,0,0,1,.06-7.58,3.83,3.83,0,0,1,1.83.47c0-.22.08-.91.09-1a5.1,5.1,0,0,0-2-.37,4.57,4.57,0,0,0-4.85,4.7A4.51,4.51,0,0,0,219.83,78" transform="translate(0 0)"/>
            <path id="path7919" class="cls-7" d="M225.5,77.23a2.41,2.41,0,0,1-2.27-2.69,2.29,2.29,0,1,1,4.52,0c0,1.3-.7,2.69-2.25,2.69m0-6.16a3.28,3.28,0,0,0-3.38,3.47,3.37,3.37,0,1,0,6.74,0,3.27,3.27,0,0,0-3.36-3.47" transform="translate(0 0)"/>
            <path id="path7923" class="cls-7" d="M231,68h-1v9.85h1Z" transform="translate(0 0)"/>
            <path id="path7927" class="cls-7" d="M233.45,68h-1v9.85h1Z" transform="translate(0 0)"/>
            <path id="path7933" class="cls-7" d="M235.69,73.87a2,2,0,0,1,2-2,1.85,1.85,0,0,1,1.83,2V74h-3.8ZM238,78a4.9,4.9,0,0,0,1.94-.37l.11,0v-1a4.22,4.22,0,0,1-2,.59,2.36,2.36,0,0,1-2.38-2.4v-.12h4.89c0-2.44-1-3.64-2.91-3.64a3.06,3.06,0,0,0-3.09,3.35c0,2.32,1.22,3.6,3.43,3.6" transform="translate(0 0)"/>
            <path id="path7939" class="cls-7" d="M246.52,74.63a2.25,2.25,0,0,1-2.12,2.44c-1.33,0-2-1.28-2-2.54s.72-2.67,2-2.67,2.12,1.08,2.12,2.77m-2.31-3.56c-2,0-2.94,1.83-2.94,3.53s.86,3.26,2.81,3.26a2.75,2.75,0,0,0,2.21-1l.23-.28v1a2.19,2.19,0,0,1-2.24,2.47,5.16,5.16,0,0,1-2.37-.56c0,.21-.09.77-.11.91a6.73,6.73,0,0,0,2.33.44c2.3,0,3.42-1,3.42-3.16V71.23h-.93v.91l-.25,0a2.16,2.16,0,0,0-2.16-1.12" transform="translate(0 0)"/>
            <path id="path7945" class="cls-7" d="M253.3,73.88V74h-3.8v-.13a2,2,0,0,1,2-2,1.85,1.85,0,0,1,1.83,2m-4.9.54c0,2.32,1.22,3.6,3.43,3.6a4.9,4.9,0,0,0,1.94-.37l.11,0v-1a4.18,4.18,0,0,1-2,.59,2.36,2.36,0,0,1-2.38-2.4v-.12h4.89c0-2.44-1-3.64-2.9-3.64a3.06,3.06,0,0,0-3.1,3.35" transform="translate(0 0)"/>
        </g>
    </g>
    <a xlink:href="https://cantstopcolumbus.com/">
        <rect x="10.786" y="40.862" width="77.158" height="71.142" style="fill: rgb(216, 216, 216); fill-opacity: 0;"/>
    </a>
    <a xlink:href="https://www.ccad.edu/">
        <rect x="109.1" y="44.9" width="157.221" height="67.104" style="fill: rgb(216, 216, 216); fill-opacity: 0;"/>
    </a>
    <a xlink:href="https://columbusfoundation.org/">
        <rect x="278.766" y="35.261" width="121.234" height="81.779" style="fill: rgb(216, 216, 216); fill-opacity: 0;"/>
    </a>
</svg>