<?xml version="1.0" encoding="utf-8"?>
<!-- Generator: Adobe Illustrator 24.2.1, SVG Export Plug-In . SVG Version: 6.00 Build 0)  -->
<svg version="1.1" id="Layer_1" xmlns="http://www.w3.org/2000/svg" xmlns:xlink="http://www.w3.org/1999/xlink" x="0px" y="0px"
	 viewBox="0 0 212 204" enable-background="new 0 0 212 204" xml:space="preserve">
<g>
	<g>
		<g>
			<path d="M141.63,46.78c-13.23-13.44-30.92-23.17-50.24-22.11C74.64,25.58,59.42,33.97,48,45.98
				c-9.99,10.5-17.13,23.78-19.17,38.21c-1.94,13.68,0.23,27.33,5.81,39.93c5.39,12.17,14.07,22.68,24.69,30.65
				c10.89,8.17,24.04,13.06,37.61,14.04c14.97,1.08,30.1-3.06,43.06-10.47c11.92-6.81,22.34-16.73,28.98-28.81
				c6.87-12.5,9.29-26.82,6.73-40.86c-3.04-16.69-13.12-31.4-25.16-42.99c-3.87-3.72-8-7.13-12.26-10.4
				c-1.88-1.44-5.12-0.35-6.16,1.61c-1.26,2.38-0.39,4.62,1.61,6.16c0.72,0.55,0.34,0.27,0.19,0.14c0.3,0.23,0.6,0.47,0.9,0.71
				c0.47,0.37,0.94,0.75,1.41,1.13c1.03,0.84,2.05,1.69,3.06,2.56c1.87,1.62,3.7,3.29,5.47,5.02c3.23,3.15,6.2,6.51,9.03,10.02
				c0.42,0.52-0.43-0.57-0.02-0.03c0.15,0.2,0.3,0.39,0.44,0.58c0.33,0.44,0.65,0.87,0.97,1.32c0.63,0.87,1.24,1.74,1.83,2.63
				c1.08,1.62,2.1,3.28,3.06,4.98c0.94,1.67,1.82,3.38,2.62,5.12c0.18,0.39,0.35,0.78,0.53,1.17c0.07,0.15,0.36,0.78,0.09,0.19
				c-0.31-0.68,0.11,0.27,0.14,0.34c0.35,0.87,0.69,1.74,1,2.62c1.14,3.19,2.03,6.47,2.62,9.8c0.08,0.43,0.15,0.85,0.21,1.28
				c0.03,0.19,0.05,0.38,0.08,0.57c0.1,0.6-0.11-0.95-0.05-0.34c0.09,0.85,0.2,1.69,0.27,2.54c0.13,1.63,0.19,3.26,0.18,4.89
				c-0.01,1.56-0.09,3.12-0.24,4.68c-0.04,0.41-0.08,0.82-0.13,1.22c-0.02,0.18-0.05,0.36-0.07,0.54c-0.06,0.6,0.15-0.98,0.05-0.39
				c-0.13,0.8-0.25,1.61-0.4,2.41c-0.57,3.05-1.4,6.05-2.46,8.97c-0.26,0.72-0.54,1.43-0.83,2.13c-0.39,0.96,0.4-0.9-0.12,0.29
				c-0.16,0.37-0.33,0.74-0.5,1.1c-0.66,1.43-1.38,2.83-2.15,4.2c-0.75,1.34-1.55,2.65-2.4,3.93c-0.42,0.64-0.86,1.28-1.31,1.91
				c-0.21,0.3-0.42,0.59-0.64,0.88c-0.13,0.18-0.27,0.37-0.41,0.55c-0.1,0.13-0.6,0.79-0.15,0.2c0.47-0.61-0.32,0.4-0.41,0.51
				c-0.26,0.32-0.52,0.64-0.78,0.95c-0.53,0.63-1.07,1.26-1.62,1.87c-1.04,1.17-2.13,2.3-3.24,3.39c-1.16,1.13-2.36,2.23-3.59,3.29
				c-0.6,0.52-1.21,1.02-1.83,1.52c-0.26,0.21-0.67,0.43-0.88,0.7c0.05-0.06,0.86-0.65,0.24-0.19c-0.22,0.17-0.45,0.34-0.67,0.51
				c-2.57,1.91-5.27,3.66-8.06,5.25c-1.45,0.82-2.93,1.6-4.42,2.32c-0.82,0.4-1.64,0.78-2.47,1.15c-0.4,0.18-0.8,0.37-1.21,0.53
				c1.13-0.43-0.45,0.18-0.74,0.29c-3.37,1.34-6.83,2.44-10.36,3.28c-1.71,0.41-3.44,0.75-5.18,1.02c-0.33,0.05-0.9,0.01-1.17,0.18
				c0.45-0.27,0.85-0.11,0.32-0.04c-0.19,0.02-0.39,0.05-0.58,0.07c-0.87,0.1-1.74,0.19-2.62,0.26c-3.31,0.26-6.65,0.27-9.96,0.03
				c-0.74-0.05-1.48-0.12-2.22-0.2c-0.37-0.04-0.74-0.09-1.1-0.13c-0.96-0.11,0.88,0.13,0.23,0.03c-0.23-0.04-0.46-0.07-0.68-0.1
				c-1.58-0.24-3.16-0.54-4.72-0.9c-3.04-0.7-6.03-1.62-8.94-2.74c-0.34-0.13-0.67-0.26-1-0.4c-0.17-0.07-0.33-0.14-0.5-0.2
				c-0.87-0.35,0.78,0.35,0.21,0.09c-0.74-0.33-1.47-0.65-2.2-1c-1.41-0.67-2.8-1.39-4.16-2.15c-2.68-1.5-5.26-3.18-7.72-5.02
				c-0.12-0.09-1.13-0.85-0.5-0.37c0.62,0.46-0.46-0.37-0.59-0.47c-0.62-0.5-1.24-1.01-1.84-1.53c-1.14-0.98-2.26-2-3.34-3.06
				c-2.19-2.14-4.25-4.41-6.16-6.8c-0.21-0.26-0.97-1.37-0.2-0.24c-0.2-0.29-0.43-0.57-0.64-0.85c-0.48-0.64-0.94-1.29-1.4-1.94
				c-0.86-1.24-1.68-2.5-2.47-3.78c-1.61-2.64-3.06-5.39-4.32-8.21c-0.14-0.32-0.28-0.65-0.43-0.97c-0.3-0.69,0.12,0.28,0.14,0.34
				c-0.05-0.16-0.14-0.33-0.2-0.49c-0.3-0.74-0.59-1.48-0.86-2.22c-0.54-1.45-1.02-2.91-1.46-4.39c-0.87-2.92-1.54-5.89-2.02-8.9
				c-0.05-0.35-0.1-0.7-0.16-1.05c-0.11-0.76,0.05,0.35,0.05,0.41c-0.01-0.22-0.06-0.44-0.08-0.66c-0.09-0.79-0.17-1.58-0.24-2.38
				c-0.13-1.55-0.2-3.1-0.21-4.65c-0.02-1.51,0.02-3.03,0.11-4.54c0.05-0.76,0.11-1.52,0.18-2.27c0.03-0.36,0.07-0.71,0.11-1.07
				c0.02-0.18,0.04-0.36,0.06-0.53c0.12-1.04-0.09,0.59-0.02,0.13c0.48-3.11,1.11-6.17,2.01-9.19c0.45-1.51,0.96-3.01,1.53-4.48
				c0.15-0.39,0.31-0.79,0.47-1.18c0.41-1.04-0.36,0.79,0.09-0.23c0.35-0.78,0.7-1.56,1.07-2.34c1.47-3.05,3.18-5.98,5.1-8.77
				c0.49-0.71,0.99-1.41,1.51-2.11c0.16-0.22,1-1.51,0.32-0.44c0.24-0.39,0.58-0.74,0.87-1.1c1.17-1.44,2.39-2.84,3.67-4.19
				c1.28-1.36,2.61-2.67,3.99-3.94c0.7-0.64,1.41-1.27,2.13-1.89c0.34-0.29,0.68-0.57,1.02-0.85c0.21-0.18,0.43-0.35,0.65-0.52
				c0.1-0.08,0.85-0.67,0.33-0.26c-0.49,0.38,0.08-0.06,0.2-0.15c0.22-0.17,0.44-0.33,0.66-0.49c0.36-0.26,0.71-0.52,1.07-0.77
				c0.81-0.57,1.63-1.12,2.46-1.65c1.56-1,3.17-1.93,4.82-2.78c0.82-0.42,1.65-0.83,2.49-1.22c0.39-0.18,0.79-0.35,1.19-0.53
				c0.62-0.29-1.03,0.41-0.03,0.01c0.25-0.1,0.5-0.2,0.75-0.3c1.76-0.69,3.55-1.3,5.36-1.81c1.76-0.5,3.55-0.9,5.36-1.22
				c0.43-0.07,0.85-0.14,1.28-0.21c0.82-0.13-0.12,0-0.23,0.03c0.26-0.06,0.54-0.07,0.81-0.1c0.97-0.11,1.95-0.19,2.92-0.24
				c1.92-0.11,3.84-0.1,5.76,0.01c0.89,0.05,1.78,0.13,2.66,0.22c0.22,0.02,0.45,0.05,0.67,0.08c0.89,0.1-0.13,0.02-0.19-0.03
				c0.29,0.23,1.3,0.2,1.68,0.27c1.93,0.34,3.85,0.79,5.73,1.35c0.97,0.28,1.93,0.6,2.88,0.93c0.51,0.18,1.02,0.37,1.52,0.56
				c0.23,0.09,0.45,0.18,0.68,0.27c0.11,0.04,1.06,0.44,0.48,0.19c-0.64-0.27,0.47,0.21,0.48,0.21c0.23,0.1,0.45,0.2,0.68,0.31
				c0.45,0.21,0.91,0.42,1.36,0.65c1.03,0.51,2.05,1.04,3.05,1.6c1.97,1.1,3.88,2.31,5.73,3.61c0.51,0.36,1.01,0.72,1.51,1.09
				c0.22,0.17,0.44,0.34,0.67,0.5c0.58,0.42-0.48-0.38,0.09,0.07c0.96,0.76,1.91,1.53,2.84,2.32c1.95,1.67,3.81,3.44,5.61,5.27
				c1.65,1.68,4.73,1.78,6.36,0C143.29,51.34,143.39,48.57,141.63,46.78L141.63,46.78z"/>
		</g>
	</g>
	<g>
		<g>
			<path d="M53.86,64.73c-0.14,5.91-0.16,11.83-0.02,17.74c0.17,7.2,0.39,14.55,1.78,21.63c0.45,2.29,1.01,5.29,2.84,6.93
				c1.43,1.29,3.56-0.82,2.12-2.12c-0.37-0.34-0.17-0.07-0.41-0.55c-0.16-0.31-0.02-0.01-0.09-0.2c-0.07-0.21-0.13-0.42-0.18-0.64
				c-0.16-0.7-0.21-1.58-0.18-2.55c0.07-2.36,0.56-4.7,1.21-6.97c0.67-2.32,1.53-4.59,2.72-6.7c0.86-1.53,1.9-3.12,3.31-3.73
				c-0.34,0.15,0.16-0.04,0.24-0.05c0.36-0.05-0.23-0.03,0.2-0.01c0.14,0.01,0.36,0.07,0.44,0.11c0.54,0.29,1.05,0.95,1.49,1.71
				c1.44,2.55,1.92,5.54,2.58,8.36c0.71,3.06,1.37,6.66,3.39,9.17c1.81,2.26,4.89,1.92,6.89,0.07c2.33-2.16,3.22-5.73,3.8-8.74
				c0.58-2.99,0.85-6.04,1.02-9.08c-0.98,0.13-1.96,0.27-2.95,0.4c1.14,3.36,0.71,6.98,1.58,10.4c0.77,3.05,2.76,5.71,5.83,6.71
				c4.98,1.61,7.62-3.99,8.59-7.87c0.62-2.48,0.96-5.11,0.87-7.67c-0.07-1.93-2.96-1.94-3,0c-0.14,7.18,2.7,15.49,10.83,16.5
				c6.44,0.8,12.43-3.66,14.67-9.52c1.41-3.68,1.26-7.81,0.17-11.55c-0.67-2.31-1.61-4.69-4.01-5.65c-2.05-0.82-4.3-0.22-6.01,1.06
				c-2.42,1.81-3.83,4.82-4.66,7.66c-0.94,3.2-1.07,6.64-0.38,9.9c0.59,2.78,2.15,5.78,4.75,7.17c1.6,0.85,3.85,1.12,5.5,0.24
				c1.59-0.85,2.79-2.43,3.76-3.91c1.18-1.79,2.13-3.79,2.78-5.83c0.48-1.48,0.95-3.33,0.46-4.86c-0.56-1.76-2.28-2.31-3.94-1.77
				c-0.84,0.27-1.17,1.01-1.05,1.85c0.68,4.73,2.89,9.02,4.99,13.26c1.89,3.82,3.94,7.92,4.14,12.26c0.14,3.13-0.45,6.34-1.19,9.36
				c-0.72,2.94-1.61,6.39-3.63,8.75c-0.94,1.1-2.17,1.26-3.4,0.32c-1.52-1.17-2.08-3.05-2.48-4.83c-0.8-3.64-0.39-7.47,0.8-10.97
				c1.17-3.45,3.19-6.63,5.88-9.09c2.43-2.21,6.21-4.44,9.62-4.17c4.91,0.39,16.58,6.63,11.24,12.68c-1.27,1.44,0.84,3.57,2.12,2.12
				c6.4-7.24-2.63-14.6-9.23-16.91c-1.7-0.59-3.62-1.08-5.43-0.84c-2.19,0.29-4.28,0.96-6.23,1.99c-3.83,2.02-6.92,5.35-8.99,9.12
				c-2.1,3.83-3.29,8.24-3.19,12.61c0.09,4.11,1.14,9.48,5.29,11.4c4.11,1.89,6.84-1.61,8.35-4.95c1.7-3.78,2.65-7.9,3.18-12
				c0.23-1.76,0.4-3.55,0.22-5.32c-0.29-2.98-1.21-5.8-2.38-8.55c-2.41-5.63-5.91-10.87-6.8-17.04c-0.35,0.62-0.7,1.23-1.05,1.85
				c0.31-0.1,0.42-0.1,0.45-0.12c0.07-0.05-0.07-0.05-0.04-0.03c-0.25-0.12-0.08-0.25-0.09-0.02c0.02-0.36,0.02,0.36,0,0.13
				c0.09,1.12-0.26,2.23-0.66,3.39c-0.87,2.51-2.26,5.26-4.29,7.03c-0.25,0.22-0.2,0.18-0.48,0.36c-0.29,0.19-0.33,0.18-0.41,0.21
				c-0.39,0.14,0.05,0.06-0.33,0.04c0.18,0.01,0.51-0.02-0.23-0.03c-0.37-0.01-0.7,0.03-1.07-0.06c-2.23-0.52-3.48-3.21-3.96-5.21
				c-0.66-2.71-0.55-5.63,0.17-8.31c0.6-2.23,1.62-4.83,3.48-6.32c1.07-0.86,2.68-1.45,3.88-0.5c1.35,1.08,1.74,3.43,2.07,5.04
				c0.57,2.8,0.44,5.81-0.67,8.47c-1.84,4.39-6.27,7.45-10.86,7.2c-2.24-0.12-4.46-1.22-5.98-3.14c-2.3-2.9-2.76-6.87-2.69-10.44
				c-1,0-2,0-3,0c0.09,2.35-0.21,4.72-0.79,7c-0.48,1.86-1.25,4.57-3.04,5.56c-2.01,1.11-4.56-1.54-5.26-3.48
				c-1.32-3.67-0.63-7.73-1.89-11.44c-0.55-1.61-2.85-1.32-2.95,0.4c-0.14,2.6-0.36,5.2-0.82,7.76c-0.46,2.55-1.04,5.8-2.92,7.73
				c-0.52,0.53-1.41,1.08-2.08,0.89c-0.85-0.24-1.5-2.07-1.8-2.88c-1.22-3.28-1.74-6.77-2.65-10.15c-0.97-3.61-3.75-10.03-8.57-7.36
				c-1.77,0.98-3.03,2.8-4.02,4.5c-1.29,2.24-2.25,4.69-2.99,7.16c-0.8,2.67-1.38,5.48-1.45,8.28c-0.05,2,0.15,4.53,1.74,5.97
				c0.71-0.71,1.41-1.41,2.12-2.12c-0.44-0.4-0.21-0.11-0.51-0.62c-0.25-0.44-0.39-0.74-0.5-1.03c-0.41-1.08-0.69-2.2-0.93-3.33
				c-0.67-3.14-0.98-6.34-1.23-9.53c-0.57-7.24-0.68-14.51-0.65-21.77c0.01-2.63,0.04-5.26,0.11-7.89
				C56.91,62.8,53.91,62.8,53.86,64.73L53.86,64.73z"/>
		</g>
	</g>
	<g>
		<g>
			<path d="M144.12,85.35c0.65-1.97,0.46-4.21-1.14-5.67c-1.42-1.3-3.47-1.72-5.34-1.5c-4.5,0.53-8.26,5.11-7.45,9.7
				c0.38,2.14,1.98,3.75,4,4.44c2.45,0.82,4.85,0.14,7.26-0.4c0.93-0.21,2.24-0.53,3.15-0.07c0.9,0.46,1.66,1.89,1.78,2.86
				c0.28,2.17-1.79,4.39-3.51,5.15c-1.91,0.85-4.41,0.96-6.52,0.65c-1.97-0.28-4.42-1.02-5.61-2.65c-0.48-0.65-1.3-0.98-2.05-0.54
				c-0.64,0.38-1.02,1.4-0.54,2.05c2.6,3.56,7.66,4.6,11.83,4.19c1.97-0.19,4.03-0.66,5.64-1.86c2.11-1.57,3.96-4.27,3.75-7
				c-0.22-2.83-2.32-5.69-5.24-6.02c-2.35-0.26-4.5,0.87-6.81,1c-0.99,0.05-2.02-0.03-2.89-0.53c-0.61-0.35-1.04-0.88-1.23-1.47
				c-0.55-1.75,0.5-3.9,1.81-5.21c1.19-1.2,3.13-1.61,4.61-1.24c0.5,0.13,0.61,0.17,1.03,0.43c0.17,0.11,0.48,0.43,0.57,0.57
				c0.17,0.27,0.23,0.48,0.25,0.76c0.04,0.55-0.08,1.01-0.26,1.55C140.62,86.39,143.52,87.17,144.12,85.35L144.12,85.35z"/>
		</g>
	</g>
</g>
</svg>
